<svg width="205" height="60" viewBox="0 0 205 60" fill="none" xmlns="http://www.w3.org/2000/svg">
<g clip-path="url(#clip0_54_4974)">
<path d="M46.9782 22.8768H53.8489L55.5168 17.2762L70.0998 8.93653L71.63 3.9939H64.7594L64.0248 6.47285L53.3133 12.5937L46.5344 6.73301L47.3607 4.00921H40.4747L39.0669 8.73759L48.7533 17.1232L46.9782 22.8768Z" fill="#424147"/>
<path d="M104.928 15.2257L102.632 22.8768H133.803L135.333 17.9036H111.645L122.066 13.5271L113.91 8.93648H137.965L139.495 3.96326H108.294L106.06 11.4001L109.427 13.3129L104.943 15.1798" fill="#424147"/>
<path d="M13.3592 3.9939H6.53443L0.872589 22.8768H7.75859L13.3592 3.9939Z" fill="#424147"/>
<path d="M37.0164 3.9939H30.7119L28.6308 10.9411H13.0684L11.5382 15.9296H27.1771L25.096 22.8768H31.9667L37.6438 3.9939H37.0164Z" fill="#424147"/>
<path d="M79.3577 8.98238H96.7716L96.2972 10.5126L90.4365 12.9609H79.9239L78.3936 17.9341H91.5076L102.219 13.42L105.05 3.96326H73.9866L68.3095 22.8462H75.1955L79.3577 8.98238Z" fill="#424147"/>
<path d="M138.945 16.557L137.047 22.8768H143.948C143.948 22.8768 145.127 18.9442 145.387 18.0872C143.29 17.521 141.163 17.0161 138.945 16.557Z" fill="#424147"/>
<path d="M161.056 17.766C154.182 15.4345 146.996 14.15 139.74 13.9558L142.709 4.03992H173.879L170.972 13.7262L161.056 17.766ZM148.095 9.01314L147.56 10.7882L146.886 13.007H159.648L160.597 12.6092L164.989 10.7576L165.264 9.83947L165.509 8.99782H148.095V9.01314Z" fill="#424147"/>
<path d="M204.392 60.0154C199.725 46.1516 192.64 36.2969 184.606 29.3344C191.798 22.326 196.71 12.8539 197.583 0.0153809C197.583 0.0153809 194.645 12.7775 178.899 24.958C155.486 9.01311 127.483 13.5425 127.483 13.5425C143.774 14.7089 159.495 20.0298 173.145 28.9978C158.394 38.378 135.012 46.4576 98.1641 46.7331C98.1641 46.7331 150.88 54.6749 179.587 33.5731C189.335 40.8727 197.73 49.8218 204.392 60.0154Z" fill="#424147"/>
</g>
<defs>
<clipPath id="clip0_54_4974">
<rect width="203.52" height="60" fill="white" transform="translate(0.872559)"/>
</clipPath>
</defs>
</svg>
