<svg width="187" height="60" viewBox="0 0 187 60" fill="none" xmlns="http://www.w3.org/2000/svg">
<path d="M11.4805 30L23.2166 41.7362L30.6328 34.3198C31.9327 33.0201 34.0734 33.0201 35.3732 34.3198C36.673 35.6195 36.673 37.7604 35.3732 39.0601L25.5867 48.8467C24.287 50.1464 22.1461 50.1464 20.8464 48.8467L6.77841 34.7403V43.1505C6.77841 44.9856 5.28752 46.5147 3.41432 46.5147C1.54113 46.5147 0.0502319 45.0238 0.0502319 43.1505V16.9259C0.0502319 15.0527 1.54113 13.5618 3.41432 13.5618C5.28752 13.5618 6.77841 15.0527 6.77841 16.9259V25.2597L20.8846 11.1534C22.1844 9.85365 24.3252 9.85365 25.6249 11.1534L35.4115 20.9399C36.7112 22.2396 36.7112 24.3804 35.4115 25.6802C34.1116 26.98 31.9709 26.98 30.6712 25.6802L23.2549 18.2639L11.4805 30ZM23.2549 26.6359C21.3816 26.6359 19.8907 28.1268 19.8907 30C19.8907 31.8732 21.3816 33.3642 23.2549 33.3642C25.128 33.3642 26.6188 31.8732 26.6188 30C26.5806 28.1268 25.0898 26.6359 23.2549 26.6359Z" fill="#424147"/>
<path d="M70.2028 43L60.6778 31.3375V43H55.4278V16.825H60.6778V28.5625L70.2028 16.825H76.5403L65.7403 29.8L76.8403 43H70.2028ZM100.281 22.225V43H94.9935V40.375C94.3185 41.275 93.431 41.9875 92.331 42.5125C91.256 43.0125 90.081 43.2625 88.806 43.2625C87.181 43.2625 85.7435 42.925 84.4935 42.25C83.2435 41.55 82.256 40.5375 81.531 39.2125C80.831 37.8625 80.481 36.2625 80.481 34.4125V22.225H85.731V33.6625C85.731 35.3125 86.1435 36.5875 86.9685 37.4875C87.7935 38.3625 88.9185 38.8 90.3435 38.8C91.7935 38.8 92.931 38.3625 93.756 37.4875C94.581 36.5875 94.9935 35.3125 94.9935 33.6625V22.225H100.281ZM104.486 32.6125C104.486 30.4625 104.923 28.5875 105.798 26.9875C106.673 25.3625 107.886 24.1125 109.436 23.2375C110.986 22.3375 112.761 21.8875 114.761 21.8875C117.336 21.8875 119.461 22.5375 121.136 23.8375C122.836 25.1125 123.973 26.9125 124.548 29.2375H118.886C118.586 28.3375 118.073 27.6375 117.348 27.1375C116.648 26.6125 115.773 26.35 114.723 26.35C113.223 26.35 112.036 26.9 111.161 28C110.286 29.075 109.848 30.6125 109.848 32.6125C109.848 34.5875 110.286 36.125 111.161 37.225C112.036 38.3 113.223 38.8375 114.723 38.8375C116.848 38.8375 118.236 37.8875 118.886 35.9875H124.548C123.973 38.2375 122.836 40.025 121.136 41.35C119.436 42.675 117.311 43.3375 114.761 43.3375C112.761 43.3375 110.986 42.9 109.436 42.025C107.886 41.125 106.673 39.875 105.798 38.275C104.923 36.65 104.486 34.7625 104.486 32.6125ZM137.995 43.3375C135.995 43.3375 134.195 42.9 132.595 42.025C130.995 41.125 129.732 39.8625 128.807 38.2375C127.907 36.6125 127.457 34.7375 127.457 32.6125C127.457 30.4875 127.92 28.6125 128.845 26.9875C129.795 25.3625 131.082 24.1125 132.707 23.2375C134.332 22.3375 136.145 21.8875 138.145 21.8875C140.145 21.8875 141.957 22.3375 143.582 23.2375C145.207 24.1125 146.482 25.3625 147.407 26.9875C148.357 28.6125 148.832 30.4875 148.832 32.6125C148.832 34.7375 148.345 36.6125 147.37 38.2375C146.42 39.8625 145.12 41.125 143.47 42.025C141.845 42.9 140.02 43.3375 137.995 43.3375ZM137.995 38.7625C138.945 38.7625 139.832 38.5375 140.657 38.0875C141.507 37.6125 142.182 36.9125 142.682 35.9875C143.182 35.0625 143.432 33.9375 143.432 32.6125C143.432 30.6375 142.907 29.125 141.857 28.075C140.832 27 139.57 26.4625 138.07 26.4625C136.57 26.4625 135.307 27 134.282 28.075C133.282 29.125 132.782 30.6375 132.782 32.6125C132.782 34.5875 133.27 36.1125 134.245 37.1875C135.245 38.2375 136.495 38.7625 137.995 38.7625ZM155.721 19.75C154.796 19.75 154.021 19.4625 153.396 18.8875C152.796 18.2875 152.496 17.55 152.496 16.675C152.496 15.8 152.796 15.075 153.396 14.5C154.021 13.9 154.796 13.6 155.721 13.6C156.646 13.6 157.408 13.9 158.008 14.5C158.633 15.075 158.946 15.8 158.946 16.675C158.946 17.55 158.633 18.2875 158.008 18.8875C157.408 19.4625 156.646 19.75 155.721 19.75ZM158.308 22.225V43H153.058V22.225H158.308ZM175.383 21.925C177.858 21.925 179.858 22.7125 181.383 24.2875C182.908 25.8375 183.67 28.0125 183.67 30.8125V43H178.42V31.525C178.42 29.875 178.008 28.6125 177.183 27.7375C176.358 26.8375 175.233 26.3875 173.808 26.3875C172.358 26.3875 171.208 26.8375 170.358 27.7375C169.533 28.6125 169.12 29.875 169.12 31.525V43H163.87V22.225H169.12V24.8125C169.82 23.9125 170.708 23.2125 171.783 22.7125C172.883 22.1875 174.083 21.925 175.383 21.925Z" fill="#424147"/>
</svg>
