<svg width="251" height="60" viewBox="0 0 251 60" fill="none" xmlns="http://www.w3.org/2000/svg">
<path fill-rule="evenodd" clip-rule="evenodd" d="M3.34369 27.2446C16.1845 21.6501 24.747 17.9618 29.0313 16.1798C41.2638 11.0919 43.8056 10.2081 45.4623 10.1789C45.8267 10.1725 46.6414 10.2628 47.1691 10.691C47.6148 11.0526 47.7374 11.5411 47.796 11.8839C47.8547 12.2267 47.9278 13.0077 47.8697 13.6179C47.2068 20.5829 44.3385 37.485 42.8793 45.2859C42.2619 48.5867 41.0461 49.6935 39.8691 49.8018C37.3111 50.0372 35.3688 48.1113 32.8913 46.4873C29.0145 43.9461 26.8244 42.3641 23.0613 39.8843C18.7124 37.0185 21.5316 35.4433 24.01 32.8692C24.6587 32.1955 35.929 21.9443 36.1471 21.0143C36.1744 20.898 36.1997 20.4645 35.9421 20.2356C35.6846 20.0067 35.3045 20.0849 35.0301 20.1472C34.6413 20.2354 28.4481 24.3289 16.4506 32.4276C14.6927 33.6347 13.1004 34.2229 11.6738 34.192C10.1011 34.1581 7.07579 33.3028 4.82679 32.5717C2.06831 31.6751 -0.124082 31.201 0.0668255 29.6781C0.166262 28.885 1.25855 28.0738 3.34369 27.2446Z" fill="#424147"/>
<path d="M84.7225 16.825V21.0625H77.7475V43H72.4975V21.0625H65.5225V16.825H84.7225ZM108.241 32.1625C108.241 32.9125 108.191 33.5875 108.091 34.1875H92.9031C93.0281 35.6875 93.5531 36.8625 94.4781 37.7125C95.4031 38.5625 96.5406 38.9875 97.8906 38.9875C99.8406 38.9875 101.228 38.15 102.053 36.475H107.716C107.116 38.475 105.966 40.125 104.266 41.425C102.566 42.7 100.478 43.3375 98.0031 43.3375C96.0031 43.3375 94.2031 42.9 92.6031 42.025C91.0281 41.125 89.7906 39.8625 88.8906 38.2375C88.0156 36.6125 87.5781 34.7375 87.5781 32.6125C87.5781 30.4625 88.0156 28.575 88.8906 26.95C89.7656 25.325 90.9906 24.075 92.5656 23.2C94.1406 22.325 95.9531 21.8875 98.0031 21.8875C99.9781 21.8875 101.741 22.3125 103.291 23.1625C104.866 24.0125 106.078 25.225 106.928 26.8C107.803 28.35 108.241 30.1375 108.241 32.1625ZM102.803 30.6625C102.778 29.3125 102.291 28.2375 101.341 27.4375C100.391 26.6125 99.2281 26.2 97.8531 26.2C96.5531 26.2 95.4531 26.6 94.5531 27.4C93.6781 28.175 93.1406 29.2625 92.9406 30.6625H102.803ZM117.698 15.25V43H112.448V15.25H117.698ZM142.572 32.1625C142.572 32.9125 142.522 33.5875 142.422 34.1875H127.235C127.36 35.6875 127.885 36.8625 128.81 37.7125C129.735 38.5625 130.872 38.9875 132.222 38.9875C134.172 38.9875 135.56 38.15 136.385 36.475H142.047C141.447 38.475 140.297 40.125 138.597 41.425C136.897 42.7 134.81 43.3375 132.335 43.3375C130.335 43.3375 128.535 42.9 126.935 42.025C125.36 41.125 124.122 39.8625 123.222 38.2375C122.347 36.6125 121.91 34.7375 121.91 32.6125C121.91 30.4625 122.347 28.575 123.222 26.95C124.097 25.325 125.322 24.075 126.897 23.2C128.472 22.325 130.285 21.8875 132.335 21.8875C134.31 21.8875 136.072 22.3125 137.622 23.1625C139.197 24.0125 140.41 25.225 141.26 26.8C142.135 28.35 142.572 30.1375 142.572 32.1625ZM137.135 30.6625C137.11 29.3125 136.622 28.2375 135.672 27.4375C134.722 26.6125 133.56 26.2 132.185 26.2C130.885 26.2 129.785 26.6 128.885 27.4C128.01 28.175 127.472 29.2625 127.272 30.6625H137.135ZM154.917 21.8875C156.467 21.8875 157.829 22.2 159.004 22.825C160.179 23.425 161.104 24.2125 161.779 25.1875V22.225H167.067V43.15C167.067 45.075 166.679 46.7875 165.904 48.2875C165.129 49.8125 163.967 51.0125 162.417 51.8875C160.867 52.7875 158.992 53.2375 156.792 53.2375C153.842 53.2375 151.417 52.55 149.517 51.175C147.642 49.8 146.579 47.925 146.329 45.55H151.542C151.817 46.5 152.404 47.25 153.304 47.8C154.229 48.375 155.342 48.6625 156.642 48.6625C158.167 48.6625 159.404 48.2 160.354 47.275C161.304 46.375 161.779 45 161.779 43.15V39.925C161.104 40.9 160.167 41.7125 158.967 42.3625C157.792 43.0125 156.442 43.3375 154.917 43.3375C153.167 43.3375 151.567 42.8875 150.117 41.9875C148.667 41.0875 147.517 39.825 146.667 38.2C145.842 36.55 145.429 34.6625 145.429 32.5375C145.429 30.4375 145.842 28.575 146.667 26.95C147.517 25.325 148.654 24.075 150.079 23.2C151.529 22.325 153.142 21.8875 154.917 21.8875ZM161.779 32.6125C161.779 31.3375 161.529 30.25 161.029 29.35C160.529 28.425 159.854 27.725 159.004 27.25C158.154 26.75 157.242 26.5 156.267 26.5C155.292 26.5 154.392 26.7375 153.567 27.2125C152.742 27.6875 152.067 28.3875 151.542 29.3125C151.042 30.2125 150.792 31.2875 150.792 32.5375C150.792 33.7875 151.042 34.8875 151.542 35.8375C152.067 36.7625 152.742 37.475 153.567 37.975C154.417 38.475 155.317 38.725 156.267 38.725C157.242 38.725 158.154 38.4875 159.004 38.0125C159.854 37.5125 160.529 36.8125 161.029 35.9125C161.529 34.9875 161.779 33.8875 161.779 32.6125ZM177.819 25.45C178.494 24.35 179.369 23.4875 180.444 22.8625C181.544 22.2375 182.794 21.925 184.194 21.925V27.4375H182.807C181.157 27.4375 179.907 27.825 179.057 28.6C178.232 29.375 177.819 30.725 177.819 32.65V43H172.569V22.225H177.819V25.45ZM186.755 32.5375C186.755 30.4375 187.168 28.575 187.993 26.95C188.843 25.325 189.98 24.075 191.405 23.2C192.855 22.325 194.468 21.8875 196.243 21.8875C197.793 21.8875 199.143 22.2 200.293 22.825C201.468 23.45 202.405 24.2375 203.105 25.1875V22.225H208.393V43H203.105V39.9625C202.43 40.9375 201.493 41.75 200.293 42.4C199.118 43.025 197.755 43.3375 196.205 43.3375C194.455 43.3375 192.855 42.8875 191.405 41.9875C189.98 41.0875 188.843 39.825 187.993 38.2C187.168 36.55 186.755 34.6625 186.755 32.5375ZM203.105 32.6125C203.105 31.3375 202.855 30.25 202.355 29.35C201.855 28.425 201.18 27.725 200.33 27.25C199.48 26.75 198.568 26.5 197.593 26.5C196.618 26.5 195.718 26.7375 194.893 27.2125C194.068 27.6875 193.393 28.3875 192.868 29.3125C192.368 30.2125 192.118 31.2875 192.118 32.5375C192.118 33.7875 192.368 34.8875 192.868 35.8375C193.393 36.7625 194.068 37.475 194.893 37.975C195.743 38.475 196.643 38.725 197.593 38.725C198.568 38.725 199.48 38.4875 200.33 38.0125C201.18 37.5125 201.855 36.8125 202.355 35.9125C202.855 34.9875 203.105 33.8875 203.105 32.6125ZM239.695 21.925C242.245 21.925 244.295 22.7125 245.845 24.2875C247.42 25.8375 248.208 28.0125 248.208 30.8125V43H242.958V31.525C242.958 29.9 242.545 28.6625 241.72 27.8125C240.895 26.9375 239.77 26.5 238.345 26.5C236.92 26.5 235.783 26.9375 234.933 27.8125C234.108 28.6625 233.695 29.9 233.695 31.525V43H228.445V31.525C228.445 29.9 228.033 28.6625 227.208 27.8125C226.383 26.9375 225.258 26.5 223.833 26.5C222.383 26.5 221.233 26.9375 220.383 27.8125C219.558 28.6625 219.145 29.9 219.145 31.525V43H213.895V22.225H219.145V24.7375C219.82 23.8625 220.683 23.175 221.733 22.675C222.808 22.175 223.983 21.925 225.258 21.925C226.883 21.925 228.333 22.275 229.608 22.975C230.883 23.65 231.87 24.625 232.57 25.9C233.245 24.7 234.22 23.7375 235.495 23.0125C236.795 22.2875 238.195 21.925 239.695 21.925Z" fill="#424147"/>
</svg>
