<svg width="245" height="60" viewBox="0 0 245 60" fill="none" xmlns="http://www.w3.org/2000/svg">
<path d="M57.0534 16.0008C56.3832 13.4969 54.4153 11.5292 51.9114 10.8589C47.3777 9.64282 29.1892 9.64282 29.1892 9.64282C29.1892 9.64282 11.0009 9.64282 6.46698 10.8589C3.96305 11.5292 1.99532 13.4969 1.32504 16.0008C0.108979 20.5347 0.108978 30 0.108978 30C0.108978 30 0.108979 39.4652 1.32504 43.9992C1.99532 46.5031 3.96305 48.4708 6.46698 49.141C11.0009 50.3571 29.1892 50.3571 29.1892 50.3571C29.1892 50.3571 47.3777 50.3571 51.9114 49.141C54.4153 48.4708 56.3832 46.5031 57.0534 43.9992C58.2695 39.4652 58.2695 30 58.2695 30C58.2695 30 58.2646 20.5347 57.0534 16.0008Z" fill="#424147"/>
<path d="M21.3785 38.7238L36.4884 30.0008L21.3785 21.2776V38.7238Z" fill="#222224"/>
<path d="M97.8452 16.825L88.9952 33.8875V43H83.7452V33.8875L74.8577 16.825H80.7827L86.4077 28.7875L91.9952 16.825H97.8452ZM110.473 43.3375C108.473 43.3375 106.673 42.9 105.073 42.025C103.473 41.125 102.211 39.8625 101.286 38.2375C100.386 36.6125 99.9356 34.7375 99.9356 32.6125C99.9356 30.4875 100.398 28.6125 101.323 26.9875C102.273 25.3625 103.561 24.1125 105.186 23.2375C106.811 22.3375 108.623 21.8875 110.623 21.8875C112.623 21.8875 114.436 22.3375 116.061 23.2375C117.686 24.1125 118.961 25.3625 119.886 26.9875C120.836 28.6125 121.311 30.4875 121.311 32.6125C121.311 34.7375 120.823 36.6125 119.848 38.2375C118.898 39.8625 117.598 41.125 115.948 42.025C114.323 42.9 112.498 43.3375 110.473 43.3375ZM110.473 38.7625C111.423 38.7625 112.311 38.5375 113.136 38.0875C113.986 37.6125 114.661 36.9125 115.161 35.9875C115.661 35.0625 115.911 33.9375 115.911 32.6125C115.911 30.6375 115.386 29.125 114.336 28.075C113.311 27 112.048 26.4625 110.548 26.4625C109.048 26.4625 107.786 27 106.761 28.075C105.761 29.125 105.261 30.6375 105.261 32.6125C105.261 34.5875 105.748 36.1125 106.723 37.1875C107.723 38.2375 108.973 38.7625 110.473 38.7625ZM145.149 22.225V43H139.862V40.375C139.187 41.275 138.299 41.9875 137.199 42.5125C136.124 43.0125 134.949 43.2625 133.674 43.2625C132.049 43.2625 130.612 42.925 129.362 42.25C128.112 41.55 127.124 40.5375 126.399 39.2125C125.699 37.8625 125.349 36.2625 125.349 34.4125V22.225H130.599V33.6625C130.599 35.3125 131.012 36.5875 131.837 37.4875C132.662 38.3625 133.787 38.8 135.212 38.8C136.662 38.8 137.799 38.3625 138.624 37.4875C139.449 36.5875 139.862 35.3125 139.862 33.6625V22.225H145.149ZM168.517 16.825V21.0625H161.542V43H156.292V21.0625H149.317V16.825H168.517ZM192.335 22.225V43H187.047V40.375C186.372 41.275 185.485 41.9875 184.385 42.5125C183.31 43.0125 182.135 43.2625 180.86 43.2625C179.235 43.2625 177.797 42.925 176.547 42.25C175.297 41.55 174.31 40.5375 173.585 39.2125C172.885 37.8625 172.535 36.2625 172.535 34.4125V22.225H177.785V33.6625C177.785 35.3125 178.197 36.5875 179.022 37.4875C179.847 38.3625 180.972 38.8 182.397 38.8C183.847 38.8 184.985 38.3625 185.81 37.4875C186.635 36.5875 187.047 35.3125 187.047 33.6625V22.225H192.335ZM203.14 25.2625C203.815 24.2625 204.74 23.45 205.915 22.825C207.115 22.2 208.477 21.8875 210.002 21.8875C211.777 21.8875 213.377 22.325 214.802 23.2C216.252 24.075 217.39 25.325 218.215 26.95C219.065 28.55 219.49 30.4125 219.49 32.5375C219.49 34.6625 219.065 36.55 218.215 38.2C217.39 39.825 216.252 41.0875 214.802 41.9875C213.377 42.8875 211.777 43.3375 210.002 43.3375C208.452 43.3375 207.09 43.0375 205.915 42.4375C204.765 41.8125 203.84 41.0125 203.14 40.0375V43H197.89V15.25H203.14V25.2625ZM214.127 32.5375C214.127 31.2875 213.865 30.2125 213.34 29.3125C212.84 28.3875 212.165 27.6875 211.315 27.2125C210.49 26.7375 209.59 26.5 208.615 26.5C207.665 26.5 206.765 26.75 205.915 27.25C205.09 27.725 204.415 28.425 203.89 29.35C203.39 30.275 203.14 31.3625 203.14 32.6125C203.14 33.8625 203.39 34.95 203.89 35.875C204.415 36.8 205.09 37.5125 205.915 38.0125C206.765 38.4875 207.665 38.725 208.615 38.725C209.59 38.725 210.49 38.475 211.315 37.975C212.165 37.475 212.84 36.7625 213.34 35.8375C213.865 34.9125 214.127 33.8125 214.127 32.5375ZM242.992 32.1625C242.992 32.9125 242.942 33.5875 242.842 34.1875H227.655C227.78 35.6875 228.305 36.8625 229.23 37.7125C230.155 38.5625 231.292 38.9875 232.642 38.9875C234.592 38.9875 235.98 38.15 236.805 36.475H242.467C241.867 38.475 240.717 40.125 239.017 41.425C237.317 42.7 235.23 43.3375 232.755 43.3375C230.755 43.3375 228.955 42.9 227.355 42.025C225.78 41.125 224.542 39.8625 223.642 38.2375C222.767 36.6125 222.33 34.7375 222.33 32.6125C222.33 30.4625 222.767 28.575 223.642 26.95C224.517 25.325 225.742 24.075 227.317 23.2C228.892 22.325 230.705 21.8875 232.755 21.8875C234.73 21.8875 236.492 22.3125 238.042 23.1625C239.617 24.0125 240.83 25.225 241.68 26.8C242.555 28.35 242.992 30.1375 242.992 32.1625ZM237.555 30.6625C237.53 29.3125 237.042 28.2375 236.092 27.4375C235.142 26.6125 233.98 26.2 232.605 26.2C231.305 26.2 230.205 26.6 229.305 27.4C228.43 28.175 227.892 29.2625 227.692 30.6625H237.555Z" fill="#424147"/>
</svg>
