<svg width="20" height="21" viewBox="0 0 20 21" fill="none" xmlns="http://www.w3.org/2000/svg">
<path d="M16.6151 7.16659H17.5C18.4205 7.16659 19.1667 7.91278 19.1667 8.83325V12.1666C19.1667 13.0871 18.4205 13.8333 17.5 13.8333H16.6151C16.205 17.1218 13.3997 19.6666 10 19.6666V17.9999C12.7615 17.9999 15 15.7613 15 12.9999V7.99992C15 5.23849 12.7615 2.99992 10 2.99992C7.23862 2.99992 5.00004 5.23849 5.00004 7.99992V13.8333H2.50004C1.57957 13.8333 0.833374 13.0871 0.833374 12.1666V8.83325C0.833374 7.91278 1.57957 7.16659 2.50004 7.16659H3.38495C3.79503 3.87799 6.60036 1.33325 10 1.33325C13.3997 1.33325 16.205 3.87799 16.6151 7.16659ZM2.50004 8.83325V12.1666H3.33337V8.83325H2.50004ZM16.6667 8.83325V12.1666H17.5V8.83325H16.6667ZM6.46624 13.654L7.34969 12.2405C8.11805 12.7218 9.02654 12.9999 10 12.9999C10.9735 12.9999 11.882 12.7218 12.6504 12.2405L13.5339 13.654C12.5094 14.2957 11.298 14.6666 10 14.6666C8.70204 14.6666 7.49072 14.2957 6.46624 13.654Z" fill="#9FA0A3"/>
</svg>
