<svg width="20" height="21" viewBox="0 0 20 21" fill="none" xmlns="http://www.w3.org/2000/svg">
<path d="M3.33337 18.8333C3.33337 15.1513 6.31814 12.1666 10 12.1666C13.682 12.1666 16.6667 15.1513 16.6667 18.8333H15C15 16.0718 12.7615 13.8333 10 13.8333C7.23862 13.8333 5.00004 16.0718 5.00004 18.8333H3.33337ZM10 11.3333C7.23754 11.3333 5.00004 9.09575 5.00004 6.33325C5.00004 3.57075 7.23754 1.33325 10 1.33325C12.7625 1.33325 15 3.57075 15 6.33325C15 9.09575 12.7625 11.3333 10 11.3333ZM10 9.66658C11.8417 9.66658 13.3334 8.17492 13.3334 6.33325C13.3334 4.49159 11.8417 2.99992 10 2.99992C8.15837 2.99992 6.66671 4.49159 6.66671 6.33325C6.66671 8.17492 8.15837 9.66658 10 9.66658Z" fill="#9FA0A3"/>
</svg>
