<svg width="20" height="21" viewBox="0 0 20 21" fill="none" xmlns="http://www.w3.org/2000/svg">
<path d="M16.6667 18.8332H5C3.61929 18.8332 2.5 17.7139 2.5 16.3332V4.6665C2.5 3.2858 3.61929 2.1665 5 2.1665H16.6667C17.1269 2.1665 17.5 2.5396 17.5 2.99984V17.9998C17.5 18.4601 17.1269 18.8332 16.6667 18.8332ZM15.8333 17.1665V15.4998H5C4.53977 15.4998 4.16667 15.8729 4.16667 16.3332C4.16667 16.7934 4.53977 17.1665 5 17.1665H15.8333ZM4.16667 13.9754C4.42732 13.8833 4.7078 13.8332 5 13.8332H15.8333V3.83317H5C4.53977 3.83317 4.16667 4.20627 4.16667 4.6665V13.9754ZM10 8.83317C9.0795 8.83317 8.33333 8.08698 8.33333 7.1665C8.33333 6.24603 9.0795 5.49984 10 5.49984C10.9205 5.49984 11.6667 6.24603 11.6667 7.1665C11.6667 8.08698 10.9205 8.83317 10 8.83317ZM7.5 12.1665C7.5 10.7858 8.61925 9.6665 10 9.6665C11.3807 9.6665 12.5 10.7858 12.5 12.1665H7.5Z" fill="#9FA0A3"/>
</svg>
