<svg width="1081" height="174" viewBox="0 0 1081 174" fill="none" xmlns="http://www.w3.org/2000/svg">
<circle cx="108.25" cy="27.3857" r="26.4624" fill="#F7F7F7"/>
<path d="M0.0991211 80.3105V39.4664H32.8895C59.9271 39.4664 80.6368 63.0524 80.0615 63.6277C92.4873 77.4341 112.852 102.746 114.002 119.429C114.456 126 121.5 131.509 124.357 131.509H151.395C160.5 131.509 154.846 124.606 154.271 124.606C129.5 115.5 133.37 87.4055 133.562 80.3105C136.323 47.175 164.243 39.2746 177.857 39.4664H237.685V0.92334H281.981V39.4664H319.949V80.3105H281.981V172.354H237.685V80.3105H181.309C176.131 80.3105 177.857 87.789 177.857 87.2137C200.293 113.101 197.992 130.359 198.567 129.208C197.647 155.441 189.363 172.354 165.777 172.354L108.25 173.504C85.8142 173.504 71.4325 135.345 64.5293 116.552C50.2626 86.6384 29.4378 79.927 20.8088 80.3105H0.0991211Z" fill="#F7F7F7"/>
<path d="M422.57 126.281H404.43V51.6295H426.64L438.733 91.5137L450.826 51.6295H473.036V126.281H455.012V78.8391L445.71 110.119H431.756L422.57 79.0717V126.281ZM520.353 126.281L518.027 115.119H500.12L497.678 126.281H477.678L496.864 51.6295H521.632L540.818 126.281H520.353ZM503.26 100.7H514.888L509.19 73.839L503.26 100.7ZM581.745 126.281H561.396V102.095L540.815 51.6295H561.629L571.396 83.1415L580.466 51.6295H601.164L581.745 101.863V126.281ZM640.415 51.6295H660.415V126.281H640.415V96.7463H625.764V126.281H605.764V51.6295H625.764V82.2112H640.415V51.6295ZM690.044 111.746H715.51V126.281H669.695V51.6295H714.463V66.1645H690.044V81.3973H711.091V95.9323H690.044V111.746ZM740.07 126.281H721.93V51.6295H744.14L756.233 91.5137L768.326 51.6295H790.536V126.281H772.512V78.8391L763.21 110.119H749.256L740.07 79.0717V126.281ZM817.969 126.281H799.829V51.6295H822.039L834.132 91.5137L846.225 51.6295H868.435V126.281H850.411V78.8391L841.109 110.119H827.155L817.969 79.0717V126.281ZM898.077 111.746H923.542V126.281H877.728V51.6295H922.496V66.1645H898.077V81.3973H919.124V95.9323H898.077V111.746ZM931.126 51.6295H965.429C976.824 51.6295 982.522 56.4358 982.522 66.0483V111.863C982.522 121.475 976.824 126.281 965.429 126.281H931.126V51.6295ZM962.173 110.351V67.5599C962.173 65.8545 961.204 65.0017 959.266 65.0017H951.475V112.909H959.266C961.204 112.909 962.173 112.057 962.173 110.351ZM991.51 51.6295H1011.86V126.281H991.51V51.6295ZM1059.17 126.281L1056.85 115.119H1038.94L1036.5 126.281H1016.5L1035.68 51.6295H1060.45L1079.64 126.281H1059.17ZM1042.08 100.7H1053.71L1048.01 73.839L1042.08 100.7Z" fill="white"/>
</svg>
