<svg width="221" height="60" viewBox="0 0 221 60" fill="none" xmlns="http://www.w3.org/2000/svg">
<path d="M11.0869 30L6.03567 35.0531L0.935669 30L6.03379 24.9019L11.0869 30ZM23.4357 17.6513L32.1357 26.3513L37.2357 21.255L23.4357 7.5L9.63567 21.3L14.7357 26.3963L23.4357 17.6513ZM40.8375 24.9019L35.7844 30L40.8825 35.0981L45.9788 30L40.8375 24.9019ZM23.4357 42.3488L14.7357 33.6038L9.63567 38.7019L23.4357 52.5L37.2357 38.7L32.1357 33.6038L23.4357 42.3488ZM23.4357 35.055L28.5338 29.955L23.4357 24.9038L18.3375 30L23.4357 35.0531V35.055Z" fill="#424147"/>
<path d="M79.7443 29.575C81.2193 29.85 82.4318 30.5875 83.3818 31.7875C84.3318 32.9875 84.8068 34.3625 84.8068 35.9125C84.8068 37.3125 84.4568 38.55 83.7568 39.625C83.0818 40.675 82.0943 41.5 80.7943 42.1C79.4943 42.7 77.9568 43 76.1818 43H64.8943V16.825H75.6943C77.4693 16.825 78.9943 17.1125 80.2693 17.6875C81.5693 18.2625 82.5443 19.0625 83.1943 20.0875C83.8693 21.1125 84.2068 22.275 84.2068 23.575C84.2068 25.1 83.7943 26.375 82.9693 27.4C82.1693 28.425 81.0943 29.15 79.7443 29.575ZM70.1443 27.625H74.9443C76.1943 27.625 77.1568 27.35 77.8318 26.8C78.5068 26.225 78.8443 25.4125 78.8443 24.3625C78.8443 23.3125 78.5068 22.5 77.8318 21.925C77.1568 21.35 76.1943 21.0625 74.9443 21.0625H70.1443V27.625ZM75.4318 38.725C76.7068 38.725 77.6943 38.425 78.3943 37.825C79.1193 37.225 79.4818 36.375 79.4818 35.275C79.4818 34.15 79.1068 33.275 78.3568 32.65C77.6068 32 76.5943 31.675 75.3193 31.675H70.1443V38.725H75.4318ZM92.0285 19.75C91.1035 19.75 90.3285 19.4625 89.7035 18.8875C89.1035 18.2875 88.8035 17.55 88.8035 16.675C88.8035 15.8 89.1035 15.075 89.7035 14.5C90.3285 13.9 91.1035 13.6 92.0285 13.6C92.9535 13.6 93.716 13.9 94.316 14.5C94.941 15.075 95.2535 15.8 95.2535 16.675C95.2535 17.55 94.941 18.2875 94.316 18.8875C93.716 19.4625 92.9535 19.75 92.0285 19.75ZM94.616 22.225V43H89.366V22.225H94.616ZM111.69 21.925C114.165 21.925 116.165 22.7125 117.69 24.2875C119.215 25.8375 119.978 28.0125 119.978 30.8125V43H114.728V31.525C114.728 29.875 114.315 28.6125 113.49 27.7375C112.665 26.8375 111.54 26.3875 110.115 26.3875C108.665 26.3875 107.515 26.8375 106.665 27.7375C105.84 28.6125 105.428 29.875 105.428 31.525V43H100.178V22.225H105.428V24.8125C106.128 23.9125 107.015 23.2125 108.09 22.7125C109.19 22.1875 110.39 21.925 111.69 21.925ZM123.995 32.5375C123.995 30.4375 124.408 28.575 125.233 26.95C126.083 25.325 127.22 24.075 128.645 23.2C130.095 22.325 131.708 21.8875 133.483 21.8875C135.033 21.8875 136.383 22.2 137.533 22.825C138.708 23.45 139.645 24.2375 140.345 25.1875V22.225H145.633V43H140.345V39.9625C139.67 40.9375 138.733 41.75 137.533 42.4C136.358 43.025 134.995 43.3375 133.445 43.3375C131.695 43.3375 130.095 42.8875 128.645 41.9875C127.22 41.0875 126.083 39.825 125.233 38.2C124.408 36.55 123.995 34.6625 123.995 32.5375ZM140.345 32.6125C140.345 31.3375 140.095 30.25 139.595 29.35C139.095 28.425 138.42 27.725 137.57 27.25C136.72 26.75 135.808 26.5 134.833 26.5C133.858 26.5 132.958 26.7375 132.133 27.2125C131.308 27.6875 130.633 28.3875 130.108 29.3125C129.608 30.2125 129.358 31.2875 129.358 32.5375C129.358 33.7875 129.608 34.8875 130.108 35.8375C130.633 36.7625 131.308 37.475 132.133 37.975C132.983 38.475 133.883 38.725 134.833 38.725C135.808 38.725 136.72 38.4875 137.57 38.0125C138.42 37.5125 139.095 36.8125 139.595 35.9125C140.095 34.9875 140.345 33.8875 140.345 32.6125ZM162.648 21.925C165.123 21.925 167.123 22.7125 168.648 24.2875C170.173 25.8375 170.936 28.0125 170.936 30.8125V43H165.686V31.525C165.686 29.875 165.273 28.6125 164.448 27.7375C163.623 26.8375 162.498 26.3875 161.073 26.3875C159.623 26.3875 158.473 26.8375 157.623 27.7375C156.798 28.6125 156.386 29.875 156.386 31.525V43H151.136V22.225H156.386V24.8125C157.086 23.9125 157.973 23.2125 159.048 22.7125C160.148 22.1875 161.348 21.925 162.648 21.925ZM174.953 32.6125C174.953 30.4625 175.39 28.5875 176.265 26.9875C177.14 25.3625 178.353 24.1125 179.903 23.2375C181.453 22.3375 183.228 21.8875 185.228 21.8875C187.803 21.8875 189.928 22.5375 191.603 23.8375C193.303 25.1125 194.44 26.9125 195.015 29.2375H189.353C189.053 28.3375 188.54 27.6375 187.815 27.1375C187.115 26.6125 186.24 26.35 185.19 26.35C183.69 26.35 182.503 26.9 181.628 28C180.753 29.075 180.315 30.6125 180.315 32.6125C180.315 34.5875 180.753 36.125 181.628 37.225C182.503 38.3 183.69 38.8375 185.19 38.8375C187.315 38.8375 188.703 37.8875 189.353 35.9875H195.015C194.44 38.2375 193.303 40.025 191.603 41.35C189.903 42.675 187.778 43.3375 185.228 43.3375C183.228 43.3375 181.453 42.9 179.903 42.025C178.353 41.125 177.14 39.875 176.265 38.275C175.39 36.65 174.953 34.7625 174.953 32.6125ZM218.549 32.1625C218.549 32.9125 218.499 33.5875 218.399 34.1875H203.212C203.337 35.6875 203.862 36.8625 204.787 37.7125C205.712 38.5625 206.849 38.9875 208.199 38.9875C210.149 38.9875 211.537 38.15 212.362 36.475H218.024C217.424 38.475 216.274 40.125 214.574 41.425C212.874 42.7 210.787 43.3375 208.312 43.3375C206.312 43.3375 204.512 42.9 202.912 42.025C201.337 41.125 200.099 39.8625 199.199 38.2375C198.324 36.6125 197.887 34.7375 197.887 32.6125C197.887 30.4625 198.324 28.575 199.199 26.95C200.074 25.325 201.299 24.075 202.874 23.2C204.449 22.325 206.262 21.8875 208.312 21.8875C210.287 21.8875 212.049 22.3125 213.599 23.1625C215.174 24.0125 216.387 25.225 217.237 26.8C218.112 28.35 218.549 30.1375 218.549 32.1625ZM213.112 30.6625C213.087 29.3125 212.599 28.2375 211.649 27.4375C210.699 26.6125 209.537 26.2 208.162 26.2C206.862 26.2 205.762 26.6 204.862 27.4C203.987 28.175 203.449 29.2625 203.249 30.6625H213.112Z" fill="#424147"/>
</svg>
