<svg width="298" height="60" viewBox="0 0 298 60" fill="none" xmlns="http://www.w3.org/2000/svg">
<path fill-rule="evenodd" clip-rule="evenodd" d="M30.8677 0C32.9407 0 35.4642 0.150181 36.726 0.39047C37.8977 0.630758 39.7603 1.14137 40.8418 1.56188C41.9234 1.95235 43.756 2.76332 44.8976 3.36405C46.0392 3.93473 47.8117 5.01603 48.8031 5.7369C49.7945 6.4878 51.3868 7.86946 52.3481 8.86065C53.3095 9.82181 54.6914 11.4438 55.3824 12.435C56.1034 13.4261 57.1249 15.1082 57.6657 16.1895C58.2064 17.2708 58.8373 18.6825 59.0777 19.3433C59.318 20.0041 59.7987 21.5059 60.1291 22.6472C60.4897 23.9989 60.76 26.1915 60.8802 28.8046C61.0004 31.9885 60.9403 33.4002 60.5497 35.4126C60.2493 36.8243 59.7386 38.7766 59.4081 39.7678C59.0476 40.759 58.3867 42.381 57.8759 43.3722C57.3953 44.3633 56.2837 46.1655 55.4425 47.397C54.6013 48.5984 52.8288 50.6409 51.5069 51.9024C50.1851 53.194 48.022 54.846 46.7001 55.6269C45.3783 56.4078 43.2753 57.4591 42.0435 57.9697C40.8118 58.5104 38.4985 59.1712 36.9363 59.5016C34.593 59.9821 33.2711 60.0722 29.7261 59.9521C26.1811 59.832 24.8893 59.6818 22.7562 59.021C21.2842 58.6005 19.0009 57.6693 17.649 57.0086C16.2671 56.3177 14.3443 55.1763 13.3529 54.4855C12.3615 53.7947 10.6191 52.2328 9.44741 51.0614C8.30579 49.86 6.77363 48.0578 6.05261 47.0366C5.33158 46.0153 4.2801 44.1831 3.70929 43.0117C3.13848 41.8103 2.32733 39.6477 1.90674 38.1759C1.27584 36.1334 1.09559 34.6917 0.975419 31.5079C0.885292 28.9849 0.945377 26.612 1.18572 25.2003C1.39601 23.9688 1.81661 22.0765 2.14708 20.9952C2.47755 19.9139 3.28869 17.9616 3.94963 16.64C4.61056 15.3184 5.78222 13.3661 6.53329 12.2848C7.31439 11.2035 8.75643 9.52145 9.74784 8.56029C10.7392 7.59914 12.3615 6.21748 13.3529 5.49661C14.3443 4.80578 16.237 3.69444 17.5589 3.03365C18.8808 2.37285 20.9237 1.53184 22.0653 1.20144C23.2069 0.841011 24.8592 0.420506 25.6704 0.300361C26.5116 0.150181 28.8248 0.0300361 30.8677 0V0ZM24.3185 3.15379C24.018 3.2439 24.2884 3.5743 25.2197 4.17502C25.9708 4.6556 26.5716 5.01603 26.6017 4.986C26.6017 4.95596 27.0223 4.35524 27.533 3.66441C28.0437 2.94354 28.3141 2.40289 28.1339 2.40289C27.9236 2.43293 27.1124 2.55307 26.2712 2.70325C25.4601 2.85343 24.5588 3.06368 24.3185 3.15379ZM34.3226 3.54426C34.8333 4.20506 35.4342 4.77574 35.5844 4.77574C35.7647 4.74571 36.3355 4.50542 36.8762 4.17502C37.387 3.84462 37.7775 3.45415 37.6874 3.27394C37.5973 3.12376 36.9664 2.9135 36.2754 2.79336C35.5544 2.70325 34.623 2.55307 34.1724 2.46296L33.3312 2.31278L34.3226 3.54426ZM29.1553 5.52665L28.4643 6.42773C30.5072 9.13098 31.1381 9.91192 31.1682 9.91192C31.2282 9.88188 31.799 9.13098 32.46 8.2299L33.6617 6.57791C31.6789 4.02484 31.0179 3.27394 30.9579 3.27394C30.8677 3.30397 30.5973 3.60433 30.327 3.96477C30.0566 4.3252 29.5459 5.04607 29.1553 5.52665ZM21.1039 6.72809C20.473 8.59033 20.473 8.71047 20.9537 9.10094C21.2541 9.3112 22.0953 9.91192 22.8464 10.4225L24.1983 11.3236C25.0094 8.59033 25.2197 7.59914 25.2197 7.35885C25.1897 7.11856 24.7691 6.66802 24.2283 6.36766C23.7176 6.03726 22.9365 5.55668 22.5459 5.28636L21.7648 4.77574L21.1039 6.72809ZM36.8462 6.87827C36.726 6.96838 36.8762 7.83943 37.1466 8.83062C37.417 9.82181 37.7475 10.783 37.8676 10.9331C38.0479 11.1134 38.7389 10.813 39.7303 10.0621C40.6015 9.40131 41.3826 8.83062 41.4727 8.77055C41.5629 8.71047 41.3526 7.83943 41.0221 6.84823C40.6916 5.82701 40.3311 4.986 40.241 4.92592C40.1509 4.89589 39.3998 5.28636 38.5586 5.79697C37.7174 6.30758 36.9363 6.78816 36.8462 6.87827ZM15.5761 7.11856C15.6061 7.2387 16.0568 7.44896 16.5975 7.5691C17.1383 7.68925 17.7692 7.77935 17.9795 7.77935C18.1597 7.77935 18.5203 7.17863 18.7305 6.42773C18.9108 5.67683 19.031 5.0761 18.9408 5.0761C18.8507 5.0761 18.0696 5.49661 17.1683 6.00722C16.2971 6.4878 15.5761 6.99842 15.5761 7.11856ZM43.3654 6.69805C43.6959 7.80939 43.756 7.83943 44.7774 7.65921C45.3482 7.5691 46.0092 7.47899 46.2195 7.47899C46.3997 7.47899 46.61 7.35885 46.64 7.2387C46.6701 7.08852 45.9491 6.57791 45.0478 6.09733C44.1766 5.61675 43.3354 5.19625 43.2452 5.13618C43.1251 5.0761 43.0349 5.13618 43.0049 5.28636C43.0049 5.4065 43.1551 6.0673 43.3654 6.69805ZM27.1124 10.0921C26.8721 10.7229 26.7519 11.2635 26.812 11.3236C26.8721 11.3837 27.3227 11.2936 27.8334 11.1734L28.7948 10.9331L27.503 8.95076L27.1124 10.0921ZM13.7735 11.2035C13.8036 12.2247 13.9538 13.1859 14.074 13.3661C14.1941 13.5763 15.1254 13.9668 16.1469 14.2672C17.1984 14.5976 18.0997 14.7778 18.1597 14.6877C18.2198 14.5976 18.2198 13.5763 18.1297 12.435L17.9795 10.3324L13.7134 9.37127L13.7735 11.2035ZM33.7218 11.0833C33.9321 11.0833 34.4127 11.2035 34.8033 11.3236C35.4642 11.5339 35.4642 11.5038 35.1638 10.4826C34.9836 9.91192 34.8033 9.40131 34.7432 9.34123C34.7132 9.28116 34.3527 9.67163 34.0222 10.1822C33.6016 10.7529 33.4814 11.0833 33.7218 11.0833ZM44.0864 11.624C43.9663 12.4049 43.8761 13.4261 43.8761 13.8767C43.8761 14.5074 43.9963 14.6576 44.3869 14.5675C44.6873 14.5074 45.6186 14.2972 46.4898 14.117L48.0821 13.7866C48.0821 9.70167 48.052 9.58152 47.3911 9.61156C47.0306 9.64159 46.1894 9.76174 45.5285 9.91192C44.3869 10.1822 44.2967 10.2423 44.0864 11.624ZM50.4855 13.6364C52.9189 13.9368 53.67 13.9968 53.7 13.9968C53.7601 13.9668 53.0391 13.1258 52.1378 12.1346L50.5155 10.3324L50.4855 13.6364ZM8.51609 13.9968C8.54613 13.9968 9.2972 13.9368 10.1684 13.8467C11.7306 13.6364 11.7306 13.6364 11.7306 12.5851C11.7306 12.0144 11.6105 11.3537 11.4903 11.1434C11.31 10.843 10.8594 11.1734 9.83796 12.3448C9.0869 13.2159 8.48605 13.9668 8.51609 13.9968ZM20.443 14.0869C21.855 13.276 22.2756 12.9756 22.2756 12.8855C22.3056 12.7954 21.885 12.465 21.4043 12.1947L20.5031 11.654L20.443 14.0869ZM39.6401 13.0357C41.4127 14.0569 41.4727 14.0569 41.4727 13.5763C41.4727 13.276 41.5328 12.7353 41.5929 12.3749C41.653 11.9844 41.6229 11.6841 41.5328 11.6841C41.4127 11.6841 40.932 11.9844 40.4813 12.3749L39.6401 13.0357ZM24.9493 14.5074C23.8678 14.928 22.0352 15.9792 20.8936 16.8503C19.4516 17.9316 18.34 19.133 17.2885 20.6949C16.4473 21.9264 15.516 23.6685 15.1855 24.5996C14.8851 25.5007 14.5847 27.483 14.4946 29.105C14.4044 30.787 14.4946 32.6192 14.7049 33.6104C14.9151 34.5115 15.5761 36.2536 16.1769 37.5151C16.928 39.077 17.8593 40.3685 19.3014 41.7802C20.8035 43.282 21.9751 44.1231 23.8077 44.9941C25.5502 45.8351 26.9922 46.2857 28.7047 46.4959C30.387 46.7362 31.769 46.7362 33.3613 46.5259C34.8033 46.3157 36.3955 45.8051 37.8676 45.1143C39.0994 44.5436 40.7217 43.5824 41.4727 42.9817C42.1938 42.381 43.3354 41.2997 43.9663 40.5187C44.5671 39.7678 45.5585 38.2059 46.0993 37.0646C46.6701 35.8932 47.301 34.0009 47.4812 32.8595C47.6915 31.628 47.7817 29.8259 47.6615 28.5643C47.5413 27.3629 47.1508 25.5307 46.7903 24.5095C46.3997 23.4882 45.7388 22.0165 45.3182 21.2956C44.8675 20.5447 43.8461 19.2832 43.065 18.4722C42.2538 17.6913 40.8719 16.5499 39.9706 15.9492C39.0393 15.3485 37.3569 14.5675 36.2153 14.177C35.0436 13.8166 33.211 13.4562 32.1596 13.3661C31.078 13.276 29.4557 13.336 28.5545 13.4562C27.6231 13.6064 26.0008 14.0869 24.9493 14.5074ZM8.78647 16.3396L7.82511 16.4898L9.23711 20.2443C12.2714 20.2443 13.2929 20.1242 13.413 20.0041C13.5632 19.8839 13.2628 18.8927 12.7821 17.8114C12.2714 16.7301 11.7907 15.8891 11.7306 15.9191C11.6405 15.9492 11.1598 16.0093 10.6792 16.0693C10.1684 16.1294 9.32724 16.2495 8.78647 16.3396ZM48.4426 20.0041C48.4726 20.0341 49.464 20.1542 50.6357 20.2744L52.7387 20.4546C54.0005 17.0004 54.0606 16.5799 53.7301 16.3997C53.5198 16.2796 52.8288 16.1895 52.1979 16.1895C51.567 16.1895 50.876 16.0994 50.6657 16.0093C50.3653 15.8591 49.9748 16.4298 49.3138 17.8715C48.7731 19.0129 48.4126 19.974 48.4426 20.0041ZM45.3182 17.3008C45.4684 17.6012 45.7688 17.9916 46.0092 18.2019C46.3396 18.5022 46.5199 18.3521 46.9405 17.3609C47.2409 16.7001 47.3611 16.1895 47.2409 16.1895C47.1207 16.2195 46.58 16.3396 46.0392 16.4898C45.2581 16.7301 45.1079 16.8803 45.3182 17.3008ZM15.6662 18.3821C15.7864 18.4121 16.1469 18.0517 16.5074 17.6012L17.1383 16.7902C15.6061 16.5499 15.0954 16.4598 14.9752 16.4598C14.8551 16.4898 14.9151 16.8803 15.1254 17.3909C15.3057 17.9015 15.5761 18.3521 15.6662 18.3821ZM55.5026 21.5359C55.803 21.7461 56.4039 22.1066 56.8545 22.3469C57.3352 22.5872 57.6957 22.6472 57.6957 22.4971C57.6957 22.3168 57.3953 21.4158 57.0348 20.4546C56.7043 19.4934 56.3137 18.6224 56.2236 18.5022C56.1034 18.3821 55.803 18.9228 55.5026 19.7037C54.9919 21.0854 54.9919 21.1454 55.5026 21.5359ZM4.79082 21.2055C4.46035 22.0765 4.25005 22.7974 4.2801 22.7974C4.31014 22.7974 4.97107 22.467 5.72214 22.0465L7.07405 21.2956C6.53329 19.1931 6.23286 18.5924 6.05261 18.5924C5.90239 18.5924 5.66205 18.8026 5.54188 19.103C5.45175 19.4033 5.09124 20.3345 4.79082 21.2055ZM11.9409 23.7586L12.7821 24.5695C13.3529 22.5872 13.3229 22.4971 12.7821 22.5271C12.4517 22.5271 11.9409 22.6172 11.6405 22.7373C11.1298 22.9176 11.1598 23.0077 11.9409 23.7586ZM48.9834 23.6084L49.2838 24.4494C50.4254 23.278 50.6958 22.8274 50.6057 22.7073C50.5456 22.5872 50.0649 22.4971 49.5842 22.4971C49.0735 22.4971 48.6829 22.5571 48.6829 22.6472C48.6829 22.7073 48.8031 23.1578 48.9834 23.6084ZM4.55048 25.3505L7.37448 28.4442L11.4302 26.5519L8.24571 23.4282L4.55048 25.3505ZM50.7859 26.5219C50.876 26.582 51.7773 27.0625 52.7988 27.5732L54.6914 28.5043C56.7644 26.3116 57.3652 25.5607 57.3652 25.4406C57.3953 25.3204 56.5841 24.8098 55.5927 24.2992C54.6013 23.8186 53.7601 23.3981 53.7 23.3981C53.64 23.3981 52.949 24.089 52.1078 24.8999C51.2966 25.7109 50.6958 26.4618 50.7859 26.5219ZM3.31874 32.5592C4.94103 30.8171 5.42171 30.2163 5.39167 30.0962C5.39167 29.976 4.91099 29.3153 4.34018 28.6545L3.28869 27.453L3.31874 32.5592ZM56.3438 30.0061C57.9661 31.628 58.5369 32.0185 58.6571 31.9584C58.7772 31.8683 58.8974 30.9973 58.9274 30.0361C58.9274 29.0449 58.8073 28.1739 58.6571 28.0838C58.4768 27.9937 57.906 28.4142 57.3352 28.9849L56.3438 30.0061ZM9.47745 30.0662C11.25 30.9372 11.8208 31.1475 11.9109 31.1174C11.971 31.0874 12.001 30.5467 11.971 29.946L11.8508 28.8347L9.47745 30.0662ZM50.1851 31.1775C51.9275 30.4266 52.4683 30.1563 52.5284 30.0962C52.5584 30.0361 52.0477 29.7057 51.4168 29.3753L50.2151 28.7746L50.1851 31.1775ZM52.7687 32.439C51.7773 32.9196 50.876 33.3701 50.7859 33.4602C50.6958 33.5203 51.2966 34.2712 52.1378 35.0822C52.949 35.8932 53.7601 36.584 53.9404 36.554C54.0906 36.554 54.9919 36.1334 55.9232 35.5928L57.6356 34.6316L54.6314 31.598L52.7687 32.439ZM4.34018 34.6917L8.39592 36.8543C10.4989 34.4214 11.1298 33.6405 11.1298 33.5503C11.1298 33.4602 10.3487 33.0397 9.38732 32.5892C8.42596 32.1386 7.58477 31.7482 7.49465 31.7482C7.40452 31.7482 6.65346 32.409 5.84231 33.2199L4.34018 34.6917ZM10.9495 37.4851C13.3229 37.455 13.4731 37.395 13.2328 36.9444C13.0826 36.6441 12.9323 36.2236 12.8422 36.0133C12.7621 35.753 12.4216 35.9332 11.8208 36.554L10.9495 37.4851ZM49.0435 36.4338C48.8332 36.9144 48.6829 37.3649 48.743 37.395C48.7731 37.455 49.3439 37.455 49.9748 37.395L51.1164 37.3049L49.404 35.5628L49.0435 36.4338ZM4.79082 38.7466C5.09124 39.6176 5.42171 40.5488 5.54188 40.8491C5.63201 41.1194 5.81226 41.3597 5.93243 41.3597C6.0526 41.3597 6.38307 40.789 6.62341 40.0682L7.07405 38.7466L4.22001 37.1547L4.79082 38.7466ZM55.1721 39.3473C55.2923 39.7378 55.5326 40.4286 55.7429 40.9392L56.1034 41.8403C57.0348 39.7378 57.3652 38.7466 57.4554 38.2961C57.5154 37.8455 57.5154 37.4851 57.4253 37.4851C57.3051 37.5151 56.7343 37.7854 56.1034 38.0858C55.1721 38.5664 55.0219 38.8067 55.1721 39.3473ZM8.6663 41.4198C8.21567 42.4711 7.97533 43.4322 8.06545 43.5223C8.18562 43.6425 9.0869 43.7927 10.0783 43.9128L11.8809 44.1231L13.8336 39.888C12.0912 39.888 11.0997 39.7979 10.4989 39.7077L9.44741 39.5275L8.6663 41.4198ZM48.4726 40.0982C48.5027 40.2184 48.8632 41.1795 49.2838 42.2308L50.0349 44.1231C52.1378 43.8527 53.0391 43.7626 53.4297 43.7626C53.7902 43.7626 54.0906 43.6124 54.0906 43.4022C54.0906 43.1919 53.7902 42.2308 53.3996 41.2696C52.7687 39.5876 52.7086 39.5576 51.6872 39.6176C51.1164 39.6477 50.125 39.7077 49.5241 39.7678C48.8932 39.8279 48.4126 39.9781 48.4726 40.0982ZM14.795 43.6725C14.8551 43.7326 15.4259 43.6124 16.0868 43.4322L17.2885 43.1319C16.1168 41.8703 15.7864 41.4799 15.7864 41.4498C15.7563 41.4198 15.516 41.8703 15.2456 42.5011C14.9452 43.1018 14.7649 43.6425 14.795 43.6725ZM44.7774 43.0117C46.7602 43.5824 47.3611 43.7025 47.3611 43.6725C47.3911 43.6425 47.1808 43.1018 46.9104 42.4711L46.4298 41.3297L44.7774 43.0117ZM14.1641 46.586C13.9838 46.7662 13.8336 47.7574 13.8336 48.8087V50.6709C15.3658 50.4006 16.2971 50.1904 16.928 50.0402C18.0095 49.7999 18.0396 49.7398 18.0396 48.5083C18.0396 47.7875 18.0997 46.7963 18.1898 46.2556C18.2499 45.715 18.2198 45.2945 18.0997 45.2945C17.9795 45.3245 17.1383 45.5348 16.207 45.8051C15.2456 46.0754 14.3443 46.4358 14.1641 46.586ZM44.1165 48.6585C44.2967 49.6497 44.477 49.8299 45.3783 50.0702C45.9491 50.2204 46.8503 50.4006 47.331 50.5208L48.2323 50.701L48.1722 46.2556C45.4984 45.6549 44.5671 45.4146 44.3568 45.3545C44.0864 45.2644 43.9663 45.5648 43.9362 46.3758C43.9062 47.0065 43.9963 48.0278 44.1165 48.6585ZM20.443 48.268C21.855 47.4571 22.2756 47.1567 22.2756 47.0666C22.3056 46.9765 21.9151 46.6461 21.4043 46.3758L20.5031 45.8351L20.443 48.268ZM39.6702 47.0666C39.6702 47.1567 40.1509 47.5171 40.7217 47.9076C41.653 48.5083 41.7732 48.5083 41.7431 48.0578C41.7131 47.7574 41.5929 47.1567 41.4727 46.7362C41.2324 45.9853 41.2024 45.9853 40.4513 46.4358C40.0307 46.7062 39.6702 46.9765 39.6702 47.0666ZM10.3787 48.208C11.0096 48.8988 11.3401 49.049 11.4903 48.8087C11.6105 48.5984 11.7306 47.9677 11.7306 47.4571C11.7306 46.6761 11.5804 46.4358 11.0697 46.3157C10.6792 46.2256 9.98818 46.1655 9.47745 46.1655C8.6663 46.1655 8.63626 46.2256 9.02681 46.7062C9.26715 46.9765 9.868 47.6673 10.3787 48.208ZM50.4254 48.0878L50.4855 49.6197C51.9275 48.238 52.5885 47.4571 52.9189 47.0065L53.4897 46.1655C51.4769 46.1655 50.7859 46.2556 50.6357 46.3758C50.4855 46.4659 50.3954 47.2468 50.4254 48.0878ZM27.0824 50.0702L27.4128 51.1215L28.8849 49.0189C27.8034 48.7186 27.3227 48.6285 27.1425 48.5984C26.9322 48.5684 26.7519 48.6585 26.7519 48.8087C26.7519 48.9288 26.9021 49.4995 27.0824 50.0702ZM33.3312 49.0189L34.8033 51.1215C35.0737 49.9501 35.1638 49.3794 35.2239 49.1091C35.284 48.8087 35.1938 48.5684 35.0136 48.5984C34.8634 48.6285 34.4127 48.7186 34.0222 48.8387L33.3312 49.0189ZM20.443 51.2717L21.7949 55.1463C23.4172 54.1251 24.1983 53.6745 24.5588 53.4643C24.9494 53.224 25.2498 52.8636 25.2498 52.6233C25.2498 52.353 25.0395 51.4218 24.7991 50.5208C24.5588 49.5896 24.2584 48.8688 24.1082 48.8688C23.988 48.8688 23.1168 49.4094 22.1554 50.0702L20.443 51.2717ZM37.1466 51.1215C36.8762 52.1127 36.696 52.9537 36.7561 52.9537C36.7861 52.9837 37.5973 53.4943 38.5586 54.0951C39.7603 54.846 40.3311 55.0562 40.4212 54.8159C40.5114 54.6057 40.7818 53.8247 41.0521 53.0738C41.2925 52.3229 41.5028 51.6021 41.5028 51.4218C41.4727 51.2717 41.0521 50.8512 40.5114 50.4907C39.9706 50.1603 39.1895 49.6497 38.7389 49.3493C38.3183 49.079 37.8977 48.9589 37.8075 49.079C37.7174 49.1992 37.417 50.1303 37.1466 51.1215ZM29.8463 51.6922C29.1553 52.6233 28.6145 53.4943 28.6446 53.6145C28.6746 53.7346 29.1853 54.4855 29.7562 55.2364C30.357 56.0174 30.8978 56.6782 30.9579 56.6782C31.048 56.6782 31.6789 55.9873 32.3699 55.1163C33.5716 53.5844 33.6016 53.4943 33.181 52.7735C32.9407 52.353 32.3699 51.572 31.9192 51.0314L31.1081 50.0101L29.8463 51.6922ZM15.9666 52.6533C15.6662 52.7534 16.0668 53.1539 17.1683 53.8548C18.0696 54.4254 18.9108 54.876 19.031 54.876C19.1812 54.876 19.0911 54.3053 18.8507 53.6145C18.6404 52.8936 18.2799 52.2929 18.0396 52.2929C17.7992 52.2628 17.3486 52.2929 17.0181 52.383C16.6877 52.4431 16.207 52.5632 15.9666 52.6533ZM42.7045 55.1763C44.9276 53.9148 45.7989 53.3742 46.0692 53.1639C46.3697 52.9537 46.5199 52.7134 46.3697 52.6533C46.2495 52.5932 45.6186 52.4431 44.9577 52.353L43.756 52.1427L42.7045 55.1763ZM25.2197 55.7771C24.4987 56.2276 24.0481 56.6782 24.2283 56.7683C24.3785 56.8584 25.4 57.0686 26.4815 57.2488C27.533 57.4291 28.4343 57.5192 28.4643 57.4891C28.4944 57.4591 28.0437 56.8884 27.503 56.1976L26.5116 54.9661L25.2197 55.7771ZM33.2411 57.6693C34.623 57.399 35.6144 57.2488 36.3054 57.1287C37.0264 57.0386 37.6573 56.8283 37.7475 56.6782C37.8376 56.4979 37.447 56.1075 36.9063 55.7771C36.3655 55.4467 35.7947 55.1763 35.6445 55.1763C35.4642 55.1763 34.8634 55.747 34.2926 56.4379L33.2411 57.6693Z" fill="#424147"/>
<path fill-rule="evenodd" clip-rule="evenodd" d="M30.8677 0C32.9407 0 35.4642 0.150181 36.726 0.39047C37.8977 0.630758 39.7603 1.14137 40.8418 1.56188C41.9234 1.95235 43.756 2.76332 44.8976 3.36405C46.0392 3.93473 47.8117 5.01603 48.8031 5.7369C49.7945 6.4878 51.3868 7.86946 52.3481 8.86065C53.3095 9.82181 54.6914 11.4438 55.3824 12.435C56.1034 13.4261 57.1249 15.1082 57.6657 16.1895C58.2064 17.2708 58.8373 18.6825 59.0777 19.3433C59.318 20.0041 59.7987 21.5059 60.1291 22.6472C60.4897 23.9989 60.76 26.1915 60.8802 28.8046C61.0004 31.9885 60.9403 33.4002 60.5497 35.4126C60.2493 36.8243 59.7386 38.7766 59.4081 39.7678C59.0476 40.759 58.3867 42.381 57.8759 43.3722C57.3953 44.3633 56.2837 46.1655 55.4425 47.397C54.6013 48.5984 52.8288 50.6409 51.5069 51.9024C50.1851 53.194 48.022 54.846 46.7001 55.6269C45.3783 56.4078 43.2753 57.4591 42.0435 57.9697C40.8118 58.5104 38.4985 59.1712 36.9363 59.5016C34.593 59.9821 33.2711 60.0722 29.7261 59.9521C26.1811 59.832 24.8893 59.6818 22.7562 59.021C21.2842 58.6005 19.0009 57.6693 17.649 57.0086C16.2671 56.3177 14.3443 55.1763 13.3529 54.4855C12.3615 53.7947 10.6191 52.2328 9.44741 51.0614C8.30579 49.86 6.77363 48.0578 6.05261 47.0366C5.33158 46.0153 4.2801 44.1831 3.70929 43.0117C3.13848 41.8103 2.32733 39.6477 1.90674 38.1759C1.27584 36.1334 1.09559 34.6917 0.975419 31.5079C0.885292 28.9849 0.945377 26.612 1.18572 25.2003C1.39601 23.9688 1.81661 22.0765 2.14708 20.9952C2.47755 19.9139 3.28869 17.9616 3.94963 16.64C4.61056 15.3184 5.78222 13.3661 6.53329 12.2848C7.31439 11.2035 8.75643 9.52145 9.74784 8.56029C10.7392 7.59914 12.3615 6.21748 13.3529 5.49661C14.3443 4.80578 16.237 3.69444 17.5589 3.03365C18.8808 2.37285 20.9237 1.53184 22.0653 1.20144C23.2069 0.841011 24.8592 0.420506 25.6704 0.300361C26.5116 0.150181 28.8248 0.0300361 30.8677 0V0ZM24.3185 3.15379C24.018 3.2439 24.2884 3.5743 25.2197 4.17502C25.9708 4.6556 26.5716 5.01603 26.6017 4.986C26.6017 4.95596 27.0223 4.35524 27.533 3.66441C28.0437 2.94354 28.3141 2.40289 28.1339 2.40289C27.9236 2.43293 27.1124 2.55307 26.2712 2.70325C25.4601 2.85343 24.5588 3.06368 24.3185 3.15379ZM34.3226 3.54426C34.8333 4.20506 35.4342 4.77574 35.5844 4.77574C35.7647 4.74571 36.3355 4.50542 36.8762 4.17502C37.387 3.84462 37.7775 3.45415 37.6874 3.27394C37.5973 3.12376 36.9664 2.9135 36.2754 2.79336C35.5544 2.70325 34.623 2.55307 34.1724 2.46296L33.3312 2.31278L34.3226 3.54426ZM29.1553 5.52665L28.4643 6.42773C30.5072 9.13098 31.1381 9.91192 31.1682 9.91192C31.2282 9.88188 31.799 9.13098 32.46 8.2299L33.6617 6.57791C31.6789 4.02484 31.0179 3.27394 30.9579 3.27394C30.8677 3.30397 30.5973 3.60433 30.327 3.96477C30.0566 4.3252 29.5459 5.04607 29.1553 5.52665ZM21.1039 6.72809C20.473 8.59033 20.473 8.71047 20.9537 9.10094C21.2541 9.3112 22.0953 9.91192 22.8464 10.4225L24.1983 11.3236C25.0094 8.59033 25.2197 7.59914 25.2197 7.35885C25.1897 7.11856 24.7691 6.66802 24.2283 6.36766C23.7176 6.03726 22.9365 5.55668 22.5459 5.28636L21.7648 4.77574L21.1039 6.72809ZM36.8462 6.87827C36.726 6.96838 36.8762 7.83943 37.1466 8.83062C37.417 9.82181 37.7475 10.783 37.8676 10.9331C38.0479 11.1134 38.7389 10.813 39.7303 10.0621C40.6015 9.40131 41.3826 8.83062 41.4727 8.77055C41.5629 8.71047 41.3526 7.83943 41.0221 6.84823C40.6916 5.82701 40.3311 4.986 40.241 4.92592C40.1509 4.89589 39.3998 5.28636 38.5586 5.79697C37.7174 6.30758 36.9363 6.78816 36.8462 6.87827ZM15.5761 7.11856C15.6061 7.2387 16.0568 7.44896 16.5975 7.5691C17.1383 7.68925 17.7692 7.77935 17.9795 7.77935C18.1597 7.77935 18.5203 7.17863 18.7305 6.42773C18.9108 5.67683 19.031 5.0761 18.9408 5.0761C18.8507 5.0761 18.0696 5.49661 17.1683 6.00722C16.2971 6.4878 15.5761 6.99842 15.5761 7.11856ZM43.3654 6.69805C43.6959 7.80939 43.756 7.83943 44.7774 7.65921C45.3482 7.5691 46.0092 7.47899 46.2195 7.47899C46.3997 7.47899 46.61 7.35885 46.64 7.2387C46.6701 7.08852 45.9491 6.57791 45.0478 6.09733C44.1766 5.61675 43.3354 5.19625 43.2452 5.13618C43.1251 5.0761 43.0349 5.13618 43.0049 5.28636C43.0049 5.4065 43.1551 6.0673 43.3654 6.69805ZM27.1124 10.0921C26.8721 10.7229 26.7519 11.2635 26.812 11.3236C26.8721 11.3837 27.3227 11.2936 27.8334 11.1734L28.7948 10.9331L27.503 8.95076L27.1124 10.0921ZM13.7735 11.2035C13.8036 12.2247 13.9538 13.1859 14.074 13.3661C14.1941 13.5763 15.1254 13.9668 16.1469 14.2672C17.1984 14.5976 18.0997 14.7778 18.1597 14.6877C18.2198 14.5976 18.2198 13.5763 18.1297 12.435L17.9795 10.3324L13.7134 9.37127L13.7735 11.2035ZM33.7218 11.0833C33.9321 11.0833 34.4127 11.2035 34.8033 11.3236C35.4642 11.5339 35.4642 11.5038 35.1638 10.4826C34.9836 9.91192 34.8033 9.40131 34.7432 9.34123C34.7132 9.28116 34.3527 9.67163 34.0222 10.1822C33.6016 10.7529 33.4814 11.0833 33.7218 11.0833ZM44.0864 11.624C43.9663 12.4049 43.8761 13.4261 43.8761 13.8767C43.8761 14.5074 43.9963 14.6576 44.3869 14.5675C44.6873 14.5074 45.6186 14.2972 46.4898 14.117L48.0821 13.7866C48.0821 9.70167 48.052 9.58152 47.3911 9.61156C47.0306 9.64159 46.1894 9.76174 45.5285 9.91192C44.3869 10.1822 44.2967 10.2423 44.0864 11.624ZM50.4855 13.6364C52.9189 13.9368 53.67 13.9968 53.7 13.9968C53.7601 13.9668 53.0391 13.1258 52.1378 12.1346L50.5155 10.3324L50.4855 13.6364ZM8.51609 13.9968C8.54613 13.9968 9.2972 13.9368 10.1684 13.8467C11.7306 13.6364 11.7306 13.6364 11.7306 12.5851C11.7306 12.0144 11.6105 11.3537 11.4903 11.1434C11.31 10.843 10.8594 11.1734 9.83796 12.3448C9.0869 13.2159 8.48605 13.9668 8.51609 13.9968ZM20.443 14.0869C21.855 13.276 22.2756 12.9756 22.2756 12.8855C22.3056 12.7954 21.885 12.465 21.4043 12.1947L20.5031 11.654L20.443 14.0869ZM39.6401 13.0357C41.4127 14.0569 41.4727 14.0569 41.4727 13.5763C41.4727 13.276 41.5328 12.7353 41.5929 12.3749C41.653 11.9844 41.6229 11.6841 41.5328 11.6841C41.4127 11.6841 40.932 11.9844 40.4813 12.3749L39.6401 13.0357ZM24.9493 14.5074C23.8678 14.928 22.0352 15.9792 20.8936 16.8503C19.4516 17.9316 18.34 19.133 17.2885 20.6949C16.4473 21.9264 15.516 23.6685 15.1855 24.5996C14.8851 25.5007 14.5847 27.483 14.4946 29.105C14.4044 30.787 14.4946 32.6192 14.7049 33.6104C14.9151 34.5115 15.5761 36.2536 16.1769 37.5151C16.928 39.077 17.8593 40.3685 19.3014 41.7802C20.8035 43.282 21.9751 44.1231 23.8077 44.9941C25.5502 45.8351 26.9922 46.2857 28.7047 46.4959C30.387 46.7362 31.769 46.7362 33.3613 46.5259C34.8033 46.3157 36.3955 45.8051 37.8676 45.1143C39.0994 44.5436 40.7217 43.5824 41.4727 42.9817C42.1938 42.381 43.3354 41.2997 43.9663 40.5187C44.5671 39.7678 45.5585 38.2059 46.0993 37.0646C46.6701 35.8932 47.301 34.0009 47.4812 32.8595C47.6915 31.628 47.7817 29.8259 47.6615 28.5643C47.5413 27.3629 47.1508 25.5307 46.7903 24.5095C46.3997 23.4882 45.7388 22.0165 45.3182 21.2956C44.8675 20.5447 43.8461 19.2832 43.065 18.4722C42.2538 17.6913 40.8719 16.5499 39.9706 15.9492C39.0393 15.3485 37.3569 14.5675 36.2153 14.177C35.0436 13.8166 33.211 13.4562 32.1596 13.3661C31.078 13.276 29.4557 13.336 28.5545 13.4562C27.6231 13.6064 26.0008 14.0869 24.9493 14.5074ZM8.78647 16.3396L7.82511 16.4898L9.23711 20.2443C12.2714 20.2443 13.2929 20.1242 13.413 20.0041C13.5632 19.8839 13.2628 18.8927 12.7821 17.8114C12.2714 16.7301 11.7907 15.8891 11.7306 15.9191C11.6405 15.9492 11.1598 16.0093 10.6792 16.0693C10.1684 16.1294 9.32724 16.2495 8.78647 16.3396ZM48.4426 20.0041C48.4726 20.0341 49.464 20.1542 50.6357 20.2744L52.7387 20.4546C54.0005 17.0004 54.0606 16.5799 53.7301 16.3997C53.5198 16.2796 52.8288 16.1895 52.1979 16.1895C51.567 16.1895 50.876 16.0994 50.6657 16.0093C50.3653 15.8591 49.9748 16.4298 49.3138 17.8715C48.7731 19.0129 48.4126 19.974 48.4426 20.0041ZM45.3182 17.3008C45.4684 17.6012 45.7688 17.9916 46.0092 18.2019C46.3396 18.5022 46.5199 18.3521 46.9405 17.3609C47.2409 16.7001 47.3611 16.1895 47.2409 16.1895C47.1207 16.2195 46.58 16.3396 46.0392 16.4898C45.2581 16.7301 45.1079 16.8803 45.3182 17.3008ZM15.6662 18.3821C15.7864 18.4121 16.1469 18.0517 16.5074 17.6012L17.1383 16.7902C15.6061 16.5499 15.0954 16.4598 14.9752 16.4598C14.8551 16.4898 14.9151 16.8803 15.1254 17.3909C15.3057 17.9015 15.5761 18.3521 15.6662 18.3821ZM55.5026 21.5359C55.803 21.7461 56.4039 22.1066 56.8545 22.3469C57.3352 22.5872 57.6957 22.6472 57.6957 22.4971C57.6957 22.3168 57.3953 21.4158 57.0348 20.4546C56.7043 19.4934 56.3137 18.6224 56.2236 18.5022C56.1034 18.3821 55.803 18.9228 55.5026 19.7037C54.9919 21.0854 54.9919 21.1454 55.5026 21.5359ZM4.79082 21.2055C4.46035 22.0765 4.25005 22.7974 4.2801 22.7974C4.31014 22.7974 4.97107 22.467 5.72214 22.0465L7.07405 21.2956C6.53329 19.1931 6.23286 18.5924 6.05261 18.5924C5.90239 18.5924 5.66205 18.8026 5.54188 19.103C5.45175 19.4033 5.09124 20.3345 4.79082 21.2055ZM11.9409 23.7586L12.7821 24.5695C13.3529 22.5872 13.3229 22.4971 12.7821 22.5271C12.4517 22.5271 11.9409 22.6172 11.6405 22.7373C11.1298 22.9176 11.1598 23.0077 11.9409 23.7586ZM48.9834 23.6084L49.2838 24.4494C50.4254 23.278 50.6958 22.8274 50.6057 22.7073C50.5456 22.5872 50.0649 22.4971 49.5842 22.4971C49.0735 22.4971 48.6829 22.5571 48.6829 22.6472C48.6829 22.7073 48.8031 23.1578 48.9834 23.6084ZM4.55048 25.3505L7.37448 28.4442L11.4302 26.5519L8.24571 23.4282L4.55048 25.3505ZM50.7859 26.5219C50.876 26.582 51.7773 27.0625 52.7988 27.5732L54.6914 28.5043C56.7644 26.3116 57.3652 25.5607 57.3652 25.4406C57.3953 25.3204 56.5841 24.8098 55.5927 24.2992C54.6013 23.8186 53.7601 23.3981 53.7 23.3981C53.64 23.3981 52.949 24.089 52.1078 24.8999C51.2966 25.7109 50.6958 26.4618 50.7859 26.5219ZM3.31874 32.5592C4.94103 30.8171 5.42171 30.2163 5.39167 30.0962C5.39167 29.976 4.91099 29.3153 4.34018 28.6545L3.28869 27.453L3.31874 32.5592ZM56.3438 30.0061C57.9661 31.628 58.5369 32.0185 58.6571 31.9584C58.7772 31.8683 58.8974 30.9973 58.9274 30.0361C58.9274 29.0449 58.8073 28.1739 58.6571 28.0838C58.4768 27.9937 57.906 28.4142 57.3352 28.9849L56.3438 30.0061ZM9.47745 30.0662C11.25 30.9372 11.8208 31.1475 11.9109 31.1174C11.971 31.0874 12.001 30.5467 11.971 29.946L11.8508 28.8347L9.47745 30.0662ZM50.1851 31.1775C51.9275 30.4266 52.4683 30.1563 52.5284 30.0962C52.5584 30.0361 52.0477 29.7057 51.4168 29.3753L50.2151 28.7746L50.1851 31.1775ZM52.7687 32.439C51.7773 32.9196 50.876 33.3701 50.7859 33.4602C50.6958 33.5203 51.2966 34.2712 52.1378 35.0822C52.949 35.8932 53.7601 36.584 53.9404 36.554C54.0906 36.554 54.9919 36.1334 55.9232 35.5928L57.6356 34.6316L54.6314 31.598L52.7687 32.439ZM4.34018 34.6917L8.39592 36.8543C10.4989 34.4214 11.1298 33.6405 11.1298 33.5503C11.1298 33.4602 10.3487 33.0397 9.38732 32.5892C8.42596 32.1386 7.58477 31.7482 7.49465 31.7482C7.40452 31.7482 6.65346 32.409 5.84231 33.2199L4.34018 34.6917ZM10.9495 37.4851C13.3229 37.455 13.4731 37.395 13.2328 36.9444C13.0826 36.6441 12.9323 36.2236 12.8422 36.0133C12.7621 35.753 12.4216 35.9332 11.8208 36.554L10.9495 37.4851ZM49.0435 36.4338C48.8332 36.9144 48.6829 37.3649 48.743 37.395C48.7731 37.455 49.3439 37.455 49.9748 37.395L51.1164 37.3049L49.404 35.5628L49.0435 36.4338ZM4.79082 38.7466C5.09124 39.6176 5.42171 40.5488 5.54188 40.8491C5.63201 41.1194 5.81226 41.3597 5.93243 41.3597C6.0526 41.3597 6.38307 40.789 6.62341 40.0682L7.07405 38.7466L4.22001 37.1547L4.79082 38.7466ZM55.1721 39.3473C55.2923 39.7378 55.5326 40.4286 55.7429 40.9392L56.1034 41.8403C57.0348 39.7378 57.3652 38.7466 57.4554 38.2961C57.5154 37.8455 57.5154 37.4851 57.4253 37.4851C57.3051 37.5151 56.7343 37.7854 56.1034 38.0858C55.1721 38.5664 55.0219 38.8067 55.1721 39.3473ZM8.6663 41.4198C8.21567 42.4711 7.97533 43.4322 8.06545 43.5223C8.18562 43.6425 9.0869 43.7927 10.0783 43.9128L11.8809 44.1231L13.8336 39.888C12.0912 39.888 11.0997 39.7979 10.4989 39.7077L9.44741 39.5275L8.6663 41.4198ZM48.4726 40.0982C48.5027 40.2184 48.8632 41.1795 49.2838 42.2308L50.0349 44.1231C52.1378 43.8527 53.0391 43.7626 53.4297 43.7626C53.7902 43.7626 54.0906 43.6124 54.0906 43.4022C54.0906 43.1919 53.7902 42.2308 53.3996 41.2696C52.7687 39.5876 52.7086 39.5576 51.6872 39.6176C51.1164 39.6477 50.125 39.7077 49.5241 39.7678C48.8932 39.8279 48.4126 39.9781 48.4726 40.0982ZM14.795 43.6725C14.8551 43.7326 15.4259 43.6124 16.0868 43.4322L17.2885 43.1319C16.1168 41.8703 15.7864 41.4799 15.7864 41.4498C15.7563 41.4198 15.516 41.8703 15.2456 42.5011C14.9452 43.1018 14.7649 43.6425 14.795 43.6725ZM44.7774 43.0117C46.7602 43.5824 47.3611 43.7025 47.3611 43.6725C47.3911 43.6425 47.1808 43.1018 46.9104 42.4711L46.4298 41.3297L44.7774 43.0117ZM14.1641 46.586C13.9838 46.7662 13.8336 47.7574 13.8336 48.8087V50.6709C15.3658 50.4006 16.2971 50.1904 16.928 50.0402C18.0095 49.7999 18.0396 49.7398 18.0396 48.5083C18.0396 47.7875 18.0997 46.7963 18.1898 46.2556C18.2499 45.715 18.2198 45.2945 18.0997 45.2945C17.9795 45.3245 17.1383 45.5348 16.207 45.8051C15.2456 46.0754 14.3443 46.4358 14.1641 46.586ZM44.1165 48.6585C44.2967 49.6497 44.477 49.8299 45.3783 50.0702C45.9491 50.2204 46.8503 50.4006 47.331 50.5208L48.2323 50.701L48.1722 46.2556C45.4984 45.6549 44.5671 45.4146 44.3568 45.3545C44.0864 45.2644 43.9663 45.5648 43.9362 46.3758C43.9062 47.0065 43.9963 48.0278 44.1165 48.6585ZM20.443 48.268C21.855 47.4571 22.2756 47.1567 22.2756 47.0666C22.3056 46.9765 21.9151 46.6461 21.4043 46.3758L20.5031 45.8351L20.443 48.268ZM39.6702 47.0666C39.6702 47.1567 40.1509 47.5171 40.7217 47.9076C41.653 48.5083 41.7732 48.5083 41.7431 48.0578C41.7131 47.7574 41.5929 47.1567 41.4727 46.7362C41.2324 45.9853 41.2024 45.9853 40.4513 46.4358C40.0307 46.7062 39.6702 46.9765 39.6702 47.0666ZM10.3787 48.208C11.0096 48.8988 11.3401 49.049 11.4903 48.8087C11.6105 48.5984 11.7306 47.9677 11.7306 47.4571C11.7306 46.6761 11.5804 46.4358 11.0697 46.3157C10.6792 46.2256 9.98818 46.1655 9.47745 46.1655C8.6663 46.1655 8.63626 46.2256 9.02681 46.7062C9.26715 46.9765 9.868 47.6673 10.3787 48.208ZM50.4254 48.0878L50.4855 49.6197C51.9275 48.238 52.5885 47.4571 52.9189 47.0065L53.4897 46.1655C51.4769 46.1655 50.7859 46.2556 50.6357 46.3758C50.4855 46.4659 50.3954 47.2468 50.4254 48.0878ZM27.0824 50.0702L27.4128 51.1215L28.8849 49.0189C27.8034 48.7186 27.3227 48.6285 27.1425 48.5984C26.9322 48.5684 26.7519 48.6585 26.7519 48.8087C26.7519 48.9288 26.9021 49.4995 27.0824 50.0702ZM33.3312 49.0189L34.8033 51.1215C35.0737 49.9501 35.1638 49.3794 35.2239 49.1091C35.284 48.8087 35.1938 48.5684 35.0136 48.5984C34.8634 48.6285 34.4127 48.7186 34.0222 48.8387L33.3312 49.0189ZM20.443 51.2717L21.7949 55.1463C23.4172 54.1251 24.1983 53.6745 24.5588 53.4643C24.9494 53.224 25.2498 52.8636 25.2498 52.6233C25.2498 52.353 25.0395 51.4218 24.7991 50.5208C24.5588 49.5896 24.2584 48.8688 24.1082 48.8688C23.988 48.8688 23.1168 49.4094 22.1554 50.0702L20.443 51.2717ZM37.1466 51.1215C36.8762 52.1127 36.696 52.9537 36.7561 52.9537C36.7861 52.9837 37.5973 53.4943 38.5586 54.0951C39.7603 54.846 40.3311 55.0562 40.4212 54.8159C40.5114 54.6057 40.7818 53.8247 41.0521 53.0738C41.2925 52.3229 41.5028 51.6021 41.5028 51.4218C41.4727 51.2717 41.0521 50.8512 40.5114 50.4907C39.9706 50.1603 39.1895 49.6497 38.7389 49.3493C38.3183 49.079 37.8977 48.9589 37.8075 49.079C37.7174 49.1992 37.417 50.1303 37.1466 51.1215ZM29.8463 51.6922C29.1553 52.6233 28.6145 53.4943 28.6446 53.6145C28.6746 53.7346 29.1853 54.4855 29.7562 55.2364C30.357 56.0174 30.8978 56.6782 30.9579 56.6782C31.048 56.6782 31.6789 55.9873 32.3699 55.1163C33.5716 53.5844 33.6016 53.4943 33.181 52.7735C32.9407 52.353 32.3699 51.572 31.9192 51.0314L31.1081 50.0101L29.8463 51.6922ZM15.9666 52.6533C15.6662 52.7534 16.0668 53.1539 17.1683 53.8548C18.0696 54.4254 18.9108 54.876 19.031 54.876C19.1812 54.876 19.0911 54.3053 18.8507 53.6145C18.6404 52.8936 18.2799 52.2929 18.0396 52.2929C17.7992 52.2628 17.3486 52.2929 17.0181 52.383C16.6877 52.4431 16.207 52.5632 15.9666 52.6533ZM42.7045 55.1763C44.9276 53.9148 45.7989 53.3742 46.0692 53.1639C46.3697 52.9537 46.5199 52.7134 46.3697 52.6533C46.2495 52.5932 45.6186 52.4431 44.9577 52.353L43.756 52.1427L42.7045 55.1763ZM25.2197 55.7771C24.4987 56.2276 24.0481 56.6782 24.2283 56.7683C24.3785 56.8584 25.4 57.0686 26.4815 57.2488C27.533 57.4291 28.4343 57.5192 28.4643 57.4891C28.4944 57.4591 28.0437 56.8884 27.503 56.1976L26.5116 54.9661L25.2197 55.7771ZM33.2411 57.6693C34.623 57.399 35.6144 57.2488 36.3054 57.1287C37.0264 57.0386 37.6573 56.8283 37.7475 56.6782C37.8376 56.4979 37.447 56.1075 36.9063 55.7771C36.3655 55.4467 35.7947 55.1763 35.6445 55.1763C35.4642 55.1763 34.8634 55.747 34.2926 56.4379L33.2411 57.6693Z" fill="#424147"/>
<path d="M103.518 18.5969V41.5H98.9238V26.6031L92.7879 41.5H89.3097L83.141 26.6031V41.5H78.5472V18.5969H83.7644L91.0488 35.6266L98.3332 18.5969H103.518ZM125.778 23.3219L114.523 50.0969H109.634L113.572 41.0406L106.287 23.3219H111.439L116.131 36.0203L120.889 23.3219H125.778ZM144.168 18.5969V22.3047H138.065V41.5H133.472V22.3047H127.368V18.5969H144.168ZM155.92 41.7953C154.17 41.7953 152.595 41.4125 151.195 40.6469C149.795 39.8594 148.69 38.7547 147.881 37.3328C147.094 35.9109 146.7 34.2703 146.7 32.4109C146.7 30.5516 147.105 28.9109 147.914 27.4891C148.745 26.0672 149.872 24.9734 151.294 24.2078C152.715 23.4203 154.301 23.0266 156.051 23.0266C157.801 23.0266 159.387 23.4203 160.809 24.2078C162.231 24.9734 163.347 26.0672 164.156 27.4891C164.987 28.9109 165.403 30.5516 165.403 32.4109C165.403 34.2703 164.976 35.9109 164.123 37.3328C163.292 38.7547 162.155 39.8594 160.711 40.6469C159.289 41.4125 157.692 41.7953 155.92 41.7953ZM155.92 37.7922C156.751 37.7922 157.528 37.5953 158.25 37.2016C158.994 36.7859 159.584 36.1734 160.022 35.3641C160.459 34.5547 160.678 33.5703 160.678 32.4109C160.678 30.6828 160.219 29.3594 159.3 28.4406C158.403 27.5 157.298 27.0297 155.986 27.0297C154.673 27.0297 153.569 27.5 152.672 28.4406C151.797 29.3594 151.359 30.6828 151.359 32.4109C151.359 34.1391 151.786 35.4734 152.639 36.4141C153.514 37.3328 154.608 37.7922 155.92 37.7922ZM179.174 23.0594C181.34 23.0594 183.09 23.7484 184.424 25.1266C185.759 26.4828 186.426 28.3859 186.426 30.8359V41.5H181.832V31.4594C181.832 30.0156 181.471 28.9109 180.749 28.1453C180.027 27.3578 179.043 26.9641 177.796 26.9641C176.527 26.9641 175.521 27.3578 174.777 28.1453C174.055 28.9109 173.695 30.0156 173.695 31.4594V41.5H169.101V23.3219H173.695V25.5859C174.307 24.7984 175.084 24.1859 176.024 23.7484C176.987 23.2891 178.037 23.0594 179.174 23.0594ZM221.736 18.5969L215.338 41.5H209.924L205.625 25.1922L201.13 41.5L195.749 41.5328L189.58 18.5969H194.502L198.538 36.3812L203.197 18.5969H208.316L212.713 36.2828L216.782 18.5969H221.736ZM223.883 32.3453C223.883 30.5078 224.244 28.8781 224.966 27.4562C225.709 26.0344 226.705 24.9406 227.952 24.175C229.22 23.4094 230.631 23.0266 232.184 23.0266C233.541 23.0266 234.722 23.3 235.728 23.8469C236.756 24.3937 237.577 25.0828 238.189 25.9141V23.3219H242.816V41.5H238.189V38.8422C237.598 39.6953 236.778 40.4062 235.728 40.975C234.7 41.5219 233.508 41.7953 232.152 41.7953C230.62 41.7953 229.22 41.4016 227.952 40.6141C226.705 39.8266 225.709 38.7219 224.966 37.3C224.244 35.8562 223.883 34.2047 223.883 32.3453ZM238.189 32.4109C238.189 31.2953 237.97 30.3437 237.533 29.5562C237.095 28.7469 236.505 28.1344 235.761 27.7187C235.017 27.2812 234.219 27.0625 233.366 27.0625C232.512 27.0625 231.725 27.2703 231.003 27.6859C230.281 28.1016 229.691 28.7141 229.231 29.5234C228.794 30.3109 228.575 31.2516 228.575 32.3453C228.575 33.4391 228.794 34.4016 229.231 35.2328C229.691 36.0422 230.281 36.6656 231.003 37.1031C231.747 37.5406 232.534 37.7594 233.366 37.7594C234.219 37.7594 235.017 37.5516 235.761 37.1359C236.505 36.6984 237.095 36.0859 237.533 35.2984C237.97 34.4891 238.189 33.5266 238.189 32.4109ZM252.224 17.2187V41.5H247.63V17.2187H252.224ZM261.685 17.2187V41.5H257.091V17.2187H261.685ZM283.45 32.0172C283.45 32.6734 283.406 33.2641 283.319 33.7891H270.029C270.139 35.1016 270.598 36.1297 271.408 36.8734C272.217 37.6172 273.212 37.9891 274.394 37.9891C276.1 37.9891 277.314 37.2562 278.036 35.7906H282.99C282.465 37.5406 281.459 38.9844 279.972 40.1219C278.484 41.2375 276.658 41.7953 274.492 41.7953C272.742 41.7953 271.167 41.4125 269.767 40.6469C268.389 39.8594 267.306 38.7547 266.519 37.3328C265.753 35.9109 265.37 34.2703 265.37 32.4109C265.37 30.5297 265.753 28.8781 266.519 27.4562C267.284 26.0344 268.356 24.9406 269.734 24.175C271.112 23.4094 272.698 23.0266 274.492 23.0266C276.22 23.0266 277.762 23.3984 279.119 24.1422C280.497 24.8859 281.558 25.9469 282.301 27.325C283.067 28.6812 283.45 30.2453 283.45 32.0172ZM278.692 30.7047C278.67 29.5234 278.244 28.5828 277.412 27.8828C276.581 27.1609 275.564 26.8 274.361 26.8C273.223 26.8 272.261 27.15 271.473 27.85C270.708 28.5281 270.237 29.4797 270.062 30.7047H278.692ZM292.479 27.0953V35.8891C292.479 36.5016 292.622 36.95 292.906 37.2344C293.212 37.4969 293.715 37.6281 294.415 37.6281H296.548V41.5H293.661C289.789 41.5 287.853 39.6187 287.853 35.8562V27.0953H285.687V23.3219H287.853V18.8266H292.479V23.3219H296.548V27.0953H292.479Z" fill="#424147"/>
<a href="https://stake.fm/?c=hbNepZJT">
<rect fill="black" fill-opacity="0" x="0.347534" y="1.89062" width="221.315" height="49.2188"/>
</a>
</svg>
