<svg width="275" height="60" viewBox="0 0 275 60" fill="none" xmlns="http://www.w3.org/2000/svg">
<path fill-rule="evenodd" clip-rule="evenodd" d="M254.941 25.1613C254.433 25.1618 253.93 25.062 253.46 24.8676C252.991 24.6731 252.564 24.3879 252.205 24.0282C251.847 23.6686 251.562 23.2416 251.369 22.7717C251.175 22.3019 251.076 21.7985 251.078 21.2904C251.078 20.2637 251.486 19.2791 252.212 18.5532C252.938 17.8272 253.922 17.4194 254.949 17.4194C255.975 17.4194 256.96 17.8272 257.686 18.5532C258.412 19.2791 258.82 20.2637 258.82 21.2904C258.82 21.7994 258.719 22.3034 258.524 22.7735C258.329 23.2437 258.044 23.6707 257.683 24.0303C257.323 24.3898 256.895 24.6748 256.425 24.8689C255.954 25.063 255.45 25.1623 254.941 25.1613ZM254.941 18.1239C253.207 18.1239 251.811 19.531 251.811 21.2904C251.811 23.0516 253.207 24.4568 254.941 24.4568C256.664 24.4568 258.086 23.0497 258.086 21.2904C258.086 19.5291 256.662 18.1239 254.941 18.1239ZM254.364 21.9097V23.5007H253.447V19.08H255.197C256.056 19.08 256.776 19.531 256.776 20.4736C256.789 20.7479 256.714 21.0193 256.562 21.2476C256.409 21.4759 256.187 21.649 255.928 21.7413L256.846 23.5007H255.845L255.04 21.9097H254.364ZM255.845 20.5026C255.845 20.0652 255.477 19.9529 255.125 19.9529H254.364V21.0504H255.138C255.477 21.0504 255.845 20.911 255.845 20.5026ZM98.523 46.4517L85.2843 26.5936V46.4517H79.4004V17.6575H86.2036L98.7069 36.4491V17.6575H104.591V46.4517H98.523ZM108.096 36.6697C108.096 30.8226 112.913 26.3729 118.871 26.3729C124.791 26.3729 129.535 30.7123 129.535 36.5594C129.535 42.48 124.718 46.8929 118.797 46.8929C112.84 46.8929 108.096 42.5904 108.096 36.6697ZM113.98 36.5962C113.98 39.5749 116.149 41.6342 118.834 41.6342C121.518 41.6342 123.651 39.5749 123.651 36.5962C123.651 33.6542 121.482 31.5949 118.797 31.5949C116.113 31.5949 113.98 33.6542 113.98 36.5962ZM143.6 26.8142V32.4407C142.828 32.2936 142.019 32.2936 141.762 32.2936C139.004 32.2936 137.091 34.2058 137.091 37.8465V46.4517H131.465V26.8142H136.908V29.6826H136.981C138.048 27.4394 140.033 26.5936 142.056 26.5936C142.497 26.5936 143.196 26.7039 143.6 26.8142ZM160.17 46.4517V43.951H160.097C158.258 46.6355 155.316 46.8194 153.992 46.8194C148.292 46.8194 144.651 41.8917 144.651 36.5962C144.651 31.6317 148.439 26.4465 154.066 26.4465C155.206 26.4465 157.927 26.6671 159.949 29.0575H160.023V16.5175H165.723V46.4517H160.17ZM160.17 36.5962C160.17 33.6542 158 31.6316 155.316 31.6316C152.631 31.6316 150.462 33.6542 150.462 36.5962C150.462 39.5749 152.631 41.6342 155.316 41.6342C158 41.6342 160.17 39.5749 160.17 36.5962ZM177.915 46.4517L167.508 17.6575H173.943L181.408 39.5381L188.91 17.6575H195.235L184.791 46.4517H177.915ZM218.68 26.8878C218.68 33.2497 214.193 36.302 208.162 36.302H203.639V46.4517H197.682V17.6575H208.383C214.157 17.6575 218.68 20.7833 218.68 26.8878ZM212.686 27.0349C212.686 24.24 210.332 23.2839 207.868 23.2839H203.639V30.7491H207.905C210.258 30.7491 212.686 29.7194 212.686 27.0349ZM240.8 46.4517L227.562 26.5936V46.4517H221.678V17.6575H228.481L240.984 36.4491V17.6575H246.868V46.4517H240.8Z" fill="#424147"/>
<path fill-rule="evenodd" clip-rule="evenodd" d="M17.0024 50.355C13.827 45.9774 12.1212 40.7056 12.1303 35.2976C12.1303 21.1292 23.5922 9.64502 37.7304 9.64502C51.8699 9.64502 63.3304 21.1292 63.3304 35.2976C63.3397 40.7057 61.6339 45.9774 58.4583 50.355L46.1626 30.348L44.9754 32.3573L46.1797 37.9437L37.7304 23.4588L32.5037 32.3008L33.7211 37.9437L29.2916 30.3585L17.0024 50.355Z" fill="#424147"/>
</svg>
