<svg width="222" height="60" viewBox="0 0 222 60" fill="none" xmlns="http://www.w3.org/2000/svg">
<path d="M42.1044 50.3571C42.1044 50.3571 40.3476 48.2729 38.8835 46.431C45.2765 44.6378 47.7165 40.6632 47.7165 40.6632C45.7158 41.972 43.8124 42.893 42.1044 43.523C39.6644 44.5409 37.3219 45.2194 35.0283 45.6072C30.3433 46.4797 26.0487 46.2372 22.3887 45.5587C19.6069 45.0256 17.2157 44.25 15.2148 43.4746C14.0924 43.0383 12.8723 42.5052 11.6523 41.8267C11.5059 41.7295 11.3595 41.6811 11.2131 41.5842C11.1155 41.5357 11.0667 41.4873 11.0179 41.4388C10.1395 40.9541 9.65146 40.6148 9.65146 40.6148C9.65146 40.6148 11.9939 44.4924 18.1917 46.3341C16.7277 48.176 14.922 50.3571 14.922 50.3571C4.13692 50.0178 0.0375977 42.9899 0.0375977 42.9899C0.0375977 27.3829 7.06499 14.7325 7.06499 14.7325C14.0924 9.49782 20.7783 9.64323 20.7783 9.64323L21.2662 10.2249C12.4819 12.7452 8.43144 16.5743 8.43144 16.5743C8.43144 16.5743 9.50505 15.9926 11.3107 15.1687C16.5325 12.8906 20.6806 12.2605 22.3887 12.1151C22.6815 12.0667 22.9255 12.0182 23.2183 12.0182C26.1951 11.6305 29.5624 11.5335 33.0762 11.9213C37.7122 12.4544 42.6901 13.8116 47.7653 16.5743C47.7653 16.5743 43.9101 12.9391 35.6137 10.4187L36.2969 9.64323C36.2969 9.64323 42.9828 9.49782 50.0101 14.7325C50.0101 14.7325 57.0376 27.3829 57.0376 42.9899C57.0376 42.9899 52.8894 50.0178 42.1044 50.3571ZM19.4117 27.7221C16.6301 27.7221 14.434 30.1455 14.434 33.1022C14.434 36.0589 16.6789 38.4822 19.4117 38.4822C22.1935 38.4822 24.3894 36.0589 24.3894 33.1022C24.4383 30.1455 22.1935 27.7221 19.4117 27.7221ZM37.2242 27.7221C34.4426 27.7221 32.2465 30.1455 32.2465 33.1022C32.2465 36.0589 34.4915 38.4822 37.2242 38.4822C40.006 38.4822 42.2019 36.0589 42.2019 33.1022C42.2019 30.1455 40.006 27.7221 37.2242 27.7221Z" fill="#424147"/>
<path d="M85.3216 16.825C88.0716 16.825 90.4841 17.3625 92.5591 18.4375C94.6591 19.5125 96.2716 21.05 97.3966 23.05C98.5466 25.025 99.1216 27.325 99.1216 29.95C99.1216 32.575 98.5466 34.875 97.3966 36.85C96.2716 38.8 94.6591 40.3125 92.5591 41.3875C90.4841 42.4625 88.0716 43 85.3216 43H76.1716V16.825H85.3216ZM85.1341 38.5375C87.8841 38.5375 90.0091 37.7875 91.5091 36.2875C93.0091 34.7875 93.7591 32.675 93.7591 29.95C93.7591 27.225 93.0091 25.1 91.5091 23.575C90.0091 22.025 87.8841 21.25 85.1341 21.25H81.4216V38.5375H85.1341ZM106.089 19.75C105.164 19.75 104.389 19.4625 103.764 18.8875C103.164 18.2875 102.864 17.55 102.864 16.675C102.864 15.8 103.164 15.075 103.764 14.5C104.389 13.9 105.164 13.6 106.089 13.6C107.014 13.6 107.776 13.9 108.376 14.5C109.001 15.075 109.314 15.8 109.314 16.675C109.314 17.55 109.001 18.2875 108.376 18.8875C107.776 19.4625 107.014 19.75 106.089 19.75ZM108.676 22.225V43H103.426V22.225H108.676ZM122.189 43.3375C120.489 43.3375 118.964 43.0375 117.614 42.4375C116.264 41.8125 115.189 40.975 114.389 39.925C113.614 38.875 113.189 37.7125 113.114 36.4375H118.401C118.501 37.2375 118.889 37.9 119.564 38.425C120.264 38.95 121.126 39.2125 122.151 39.2125C123.151 39.2125 123.926 39.0125 124.476 38.6125C125.051 38.2125 125.339 37.7 125.339 37.075C125.339 36.4 124.989 35.9 124.289 35.575C123.614 35.225 122.526 34.85 121.026 34.45C119.476 34.075 118.201 33.6875 117.201 33.2875C116.226 32.8875 115.376 32.275 114.651 31.45C113.951 30.625 113.601 29.5125 113.601 28.1125C113.601 26.9625 113.926 25.9125 114.576 24.9625C115.251 24.0125 116.201 23.2625 117.426 22.7125C118.676 22.1625 120.139 21.8875 121.814 21.8875C124.289 21.8875 126.264 22.5125 127.739 23.7625C129.214 24.9875 130.026 26.65 130.176 28.75H125.151C125.076 27.925 124.726 27.275 124.101 26.8C123.501 26.3 122.689 26.05 121.664 26.05C120.714 26.05 119.976 26.225 119.451 26.575C118.951 26.925 118.701 27.4125 118.701 28.0375C118.701 28.7375 119.051 29.275 119.751 29.65C120.451 30 121.539 30.3625 123.014 30.7375C124.514 31.1125 125.751 31.5 126.726 31.9C127.701 32.3 128.539 32.925 129.239 33.775C129.964 34.6 130.339 35.7 130.364 37.075C130.364 38.275 130.026 39.35 129.351 40.3C128.701 41.25 127.751 42 126.501 42.55C125.276 43.075 123.839 43.3375 122.189 43.3375ZM133.698 32.6125C133.698 30.4625 134.136 28.5875 135.011 26.9875C135.886 25.3625 137.098 24.1125 138.648 23.2375C140.198 22.3375 141.973 21.8875 143.973 21.8875C146.548 21.8875 148.673 22.5375 150.348 23.8375C152.048 25.1125 153.186 26.9125 153.761 29.2375H148.098C147.798 28.3375 147.286 27.6375 146.561 27.1375C145.861 26.6125 144.986 26.35 143.936 26.35C142.436 26.35 141.248 26.9 140.373 28C139.498 29.075 139.061 30.6125 139.061 32.6125C139.061 34.5875 139.498 36.125 140.373 37.225C141.248 38.3 142.436 38.8375 143.936 38.8375C146.061 38.8375 147.448 37.8875 148.098 35.9875H153.761C153.186 38.2375 152.048 40.025 150.348 41.35C148.648 42.675 146.523 43.3375 143.973 43.3375C141.973 43.3375 140.198 42.9 138.648 42.025C137.098 41.125 135.886 39.875 135.011 38.275C134.136 36.65 133.698 34.7625 133.698 32.6125ZM167.207 43.3375C165.207 43.3375 163.407 42.9 161.807 42.025C160.207 41.125 158.944 39.8625 158.019 38.2375C157.119 36.6125 156.669 34.7375 156.669 32.6125C156.669 30.4875 157.132 28.6125 158.057 26.9875C159.007 25.3625 160.294 24.1125 161.919 23.2375C163.544 22.3375 165.357 21.8875 167.357 21.8875C169.357 21.8875 171.169 22.3375 172.794 23.2375C174.419 24.1125 175.694 25.3625 176.619 26.9875C177.569 28.6125 178.044 30.4875 178.044 32.6125C178.044 34.7375 177.557 36.6125 176.582 38.2375C175.632 39.8625 174.332 41.125 172.682 42.025C171.057 42.9 169.232 43.3375 167.207 43.3375ZM167.207 38.7625C168.157 38.7625 169.044 38.5375 169.869 38.0875C170.719 37.6125 171.394 36.9125 171.894 35.9875C172.394 35.0625 172.644 33.9375 172.644 32.6125C172.644 30.6375 172.119 29.125 171.069 28.075C170.044 27 168.782 26.4625 167.282 26.4625C165.782 26.4625 164.519 27 163.494 28.075C162.494 29.125 161.994 30.6375 161.994 32.6125C161.994 34.5875 162.482 36.1125 163.457 37.1875C164.457 38.2375 165.707 38.7625 167.207 38.7625ZM187.52 25.45C188.195 24.35 189.07 23.4875 190.145 22.8625C191.245 22.2375 192.495 21.925 193.895 21.925V27.4375H192.508C190.858 27.4375 189.608 27.825 188.758 28.6C187.933 29.375 187.52 30.725 187.52 32.65V43H182.27V22.225H187.52V25.45ZM196.456 32.5375C196.456 30.4375 196.869 28.575 197.694 26.95C198.544 25.325 199.694 24.075 201.144 23.2C202.594 22.325 204.206 21.8875 205.981 21.8875C207.331 21.8875 208.619 22.1875 209.844 22.7875C211.069 23.3625 212.044 24.1375 212.769 25.1125V15.25H218.094V43H212.769V39.925C212.119 40.95 211.206 41.775 210.031 42.4C208.856 43.025 207.494 43.3375 205.944 43.3375C204.194 43.3375 202.594 42.8875 201.144 41.9875C199.694 41.0875 198.544 39.825 197.694 38.2C196.869 36.55 196.456 34.6625 196.456 32.5375ZM212.806 32.6125C212.806 31.3375 212.556 30.25 212.056 29.35C211.556 28.425 210.881 27.725 210.031 27.25C209.181 26.75 208.269 26.5 207.294 26.5C206.319 26.5 205.419 26.7375 204.594 27.2125C203.769 27.6875 203.094 28.3875 202.569 29.3125C202.069 30.2125 201.819 31.2875 201.819 32.5375C201.819 33.7875 202.069 34.8875 202.569 35.8375C203.094 36.7625 203.769 37.475 204.594 37.975C205.444 38.475 206.344 38.725 207.294 38.725C208.269 38.725 209.181 38.4875 210.031 38.0125C210.881 37.5125 211.556 36.8125 212.056 35.9125C212.556 34.9875 212.806 33.8875 212.806 32.6125Z" fill="#424147"/>
</svg>
