<svg width="191" height="60" viewBox="0 0 191 60" fill="none" xmlns="http://www.w3.org/2000/svg">
<g clip-path="url(#clip0_54_5016)">
<path d="M20.4495 9.6333C16.4217 9.6333 12.4844 10.8277 9.1354 13.0654C5.78643 15.3031 3.17621 18.4836 1.63485 22.2048C0.0934881 25.926 -0.309794 30.0207 0.475986 33.9711C1.26177 37.9215 3.20132 41.5501 6.04938 44.3982C8.89745 47.2462 12.5261 49.1858 16.4765 49.9716C20.4269 50.7574 24.5216 50.3541 28.2427 48.8127C31.9639 47.2714 35.1445 44.6611 37.3822 41.3122C39.6199 37.9632 40.8143 34.0259 40.8143 29.9981C40.8143 24.597 38.6687 19.4171 34.8495 15.598C31.0304 11.7789 25.8505 9.6333 20.4495 9.6333ZM12.3427 22.0088H24.0407L22.2627 24.8873H10.5608L12.3427 22.0088ZM31.889 36.2133L30.111 33.3348H24.9141L26.6921 30.4563H28.3408L26.3513 27.2958L20.8176 36.1428H6.07271L9.62871 30.472H7.02437L8.79454 27.5935H20.191L18.4208 30.472H12.9772L11.207 33.3505H19.255L26.367 22.0245L35.2492 36.2289H31.8851L31.889 36.2133Z" fill="#424147"/>
</g>
<path d="M77.8523 24.7C77.2523 23.6 76.4273 22.7625 75.3773 22.1875C74.3273 21.6125 73.1023 21.325 71.7023 21.325C70.1523 21.325 68.7773 21.675 67.5773 22.375C66.3773 23.075 65.4398 24.075 64.7648 25.375C64.0898 26.675 63.7523 28.175 63.7523 29.875C63.7523 31.625 64.0898 33.15 64.7648 34.45C65.4648 35.75 66.4273 36.75 67.6523 37.45C68.8773 38.15 70.3023 38.5 71.9273 38.5C73.9273 38.5 75.5648 37.975 76.8398 36.925C78.1148 35.85 78.9523 34.3625 79.3523 32.4625H70.3523V28.45H84.5273V33.025C84.1773 34.85 83.4273 36.5375 82.2773 38.0875C81.1273 39.6375 79.6398 40.8875 77.8148 41.8375C76.0148 42.7625 73.9898 43.225 71.7398 43.225C69.2148 43.225 66.9273 42.6625 64.8773 41.5375C62.8522 40.3875 61.2522 38.8 60.0772 36.775C58.9272 34.75 58.3522 32.45 58.3522 29.875C58.3522 27.3 58.9272 25 60.0772 22.975C61.2522 20.925 62.8522 19.3375 64.8773 18.2125C66.9273 17.0625 69.2023 16.4875 71.7023 16.4875C74.6523 16.4875 77.2148 17.2125 79.3898 18.6625C81.5648 20.0875 83.0648 22.1 83.8898 24.7H77.8523ZM104.836 38.0125H94.4114L92.6864 43H87.1739L96.5864 16.7875H102.699L112.111 43H106.561L104.836 38.0125ZM103.411 33.8125L99.6239 22.8625L95.8364 33.8125H103.411ZM144.542 16.825V43H139.292V25.975L132.28 43H128.305L121.255 25.975V43H116.005V16.825H121.967L130.292 36.2875L138.617 16.825H144.542ZM155.358 21.0625V27.625H164.17V31.7875H155.358V38.725H165.295V43H150.108V16.7875H165.295V21.0625H155.358ZM179.479 43.2625C177.654 43.2625 176.004 42.95 174.529 42.325C173.079 41.7 171.929 40.8 171.079 39.625C170.229 38.45 169.791 37.0625 169.766 35.4625H175.391C175.466 36.5375 175.841 37.3875 176.516 38.0125C177.216 38.6375 178.166 38.95 179.366 38.95C180.591 38.95 181.554 38.6625 182.254 38.0875C182.954 37.4875 183.304 36.7125 183.304 35.7625C183.304 34.9875 183.066 34.35 182.591 33.85C182.116 33.35 181.516 32.9625 180.791 32.6875C180.091 32.3875 179.116 32.0625 177.866 31.7125C176.166 31.2125 174.779 30.725 173.704 30.25C172.654 29.75 171.741 29.0125 170.966 28.0375C170.216 27.0375 169.841 25.7125 169.841 24.0625C169.841 22.5125 170.229 21.1625 171.004 20.0125C171.779 18.8625 172.866 17.9875 174.266 17.3875C175.666 16.7625 177.266 16.45 179.066 16.45C181.766 16.45 183.954 17.1125 185.629 18.4375C187.329 19.7375 188.266 21.5625 188.441 23.9125H182.666C182.616 23.0125 182.229 22.275 181.504 21.7C180.804 21.1 179.866 20.8 178.691 20.8C177.666 20.8 176.841 21.0625 176.216 21.5875C175.616 22.1125 175.316 22.875 175.316 23.875C175.316 24.575 175.541 25.1625 175.991 25.6375C176.466 26.0875 177.041 26.4625 177.716 26.7625C178.416 27.0375 179.391 27.3625 180.641 27.7375C182.341 28.2375 183.729 28.7375 184.804 29.2375C185.879 29.7375 186.804 30.4875 187.579 31.4875C188.354 32.4875 188.741 33.8 188.741 35.425C188.741 36.825 188.379 38.125 187.654 39.325C186.929 40.525 185.866 41.4875 184.466 42.2125C183.066 42.9125 181.404 43.2625 179.479 43.2625Z" fill="#424147"/>
<defs>
<clipPath id="clip0_54_5016">
<rect width="40.7061" height="40.71" fill="white" transform="translate(0.0964355 9.64502)"/>
</clipPath>
</defs>
</svg>
