<svg width="252" height="60" viewBox="0 0 252 60" fill="none" xmlns="http://www.w3.org/2000/svg">
<path d="M167.244 26.4873H160.174V40.3632C160.174 44.886 165.004 48.7502 170.976 48.7502C176.948 48.7502 182.174 44.8421 182.174 40.3632V26.4873H175.104V39.0019C175.104 41.0658 173.348 42.7344 171.196 42.7344C169 42.7344 167.244 41.0658 167.244 38.958V26.4873Z" fill="#424147"/>
<path d="M55.0952 18.8467V47.6523H47.7621V12.9187H60.9793C66.7316 12.9187 71.4301 17.5733 71.4301 23.2378C71.4301 28.068 68.049 32.1078 63.4822 33.1617L73.6696 47.6523H64.9313L57.5981 36.2794V27.9802H59.3107C62.0331 27.9802 64.2287 25.9603 64.2287 23.4573C64.2287 20.9544 62.1649 18.8467 59.4424 18.8467H55.0952Z" fill="#424147"/>
<path d="M122.586 47.6524V11.2501H115.649V28.4193C113.804 26.619 111.477 25.609 108.798 25.609C103.09 25.609 98.4354 30.6588 98.4354 36.9381C98.4354 43.1734 103.09 48.2671 108.798 48.2671C111.521 48.2671 114.068 47.2132 115.649 45.2812V47.6524H122.586ZM110.774 42.3391C107.964 42.3391 105.681 39.8362 105.681 36.7624C105.681 33.6887 107.964 31.1857 110.774 31.1857C113.585 31.1857 115.868 33.6887 115.868 36.7624C115.824 39.8362 113.541 42.3391 110.774 42.3391Z" fill="#424147"/>
<path d="M151.743 28.7706C153.632 27.0141 154.817 24.6429 154.817 22.0522C154.817 19.681 153.895 17.5294 152.314 15.8168C150.646 14.0165 147.747 12.9187 143.795 12.9187H131.983V47.6523H147.264C153.105 47.5645 157.847 43.1295 157.847 37.6845C157.803 33.7325 156.398 30.9222 151.743 28.7706ZM145.859 41.6365H139.229V19.1541H143.883C145.903 19.1541 147.616 20.691 147.616 22.7548C147.616 24.8186 145.903 26.4872 143.883 26.4872H141.424V32.7665H145.947C148.406 32.7665 150.25 34.7864 150.25 37.2454C150.163 39.7044 148.538 41.5048 145.859 41.6365Z" fill="#424147"/>
<path d="M79.8171 34.3473C79.8171 32.02 81.7053 30.1318 84.0326 30.1318C86.3598 30.1318 88.248 32.02 88.248 34.3473H79.8171ZM95.0981 38.2993C95.142 37.8162 95.1859 37.3332 95.1859 36.8502C95.2738 29.3414 90.3557 25.2577 84.0326 25.2577C77.7094 25.2577 72.5718 30.4392 72.5718 36.8502C72.5718 43.2612 77.7094 48.4427 84.0326 48.4427C88.8628 48.4427 92.6391 46.2472 94.5712 42.8221L88.9506 40.2313C88.248 41.7682 86.5794 42.866 84.6034 42.866C82.0126 42.866 79.861 40.89 79.861 38.2993C80.0366 38.2993 95.0981 38.2993 95.0981 38.2993Z" fill="#424147"/>
<path d="M192.361 11.2501H185.423V47.6524H192.361V11.2501Z" fill="#424147"/>
<path d="M204.173 11.2501H197.235V47.6524H204.173V11.2501Z" fill="#424147"/>
</svg>
