<svg width="259" height="60" viewBox="0 0 259 60" fill="none" xmlns="http://www.w3.org/2000/svg">
<path d="M0.542358 19.9286L19.1852 48.75V28.1786L0.542358 19.9286Z" fill="#424147"/>
<path d="M37.9356 19.8214L19.1856 28.1786V48.75L37.9356 19.8214Z" fill="#222224"/>
<path d="M0.649501 19.5L0.542358 19.9286L19.1852 28.1786L37.9352 19.8214L18.9709 11.25L0.649501 19.5Z" fill="#74727F"/>
<path d="M73.7065 16.825V21.0625H66.7315V43H61.4815V21.0625H54.5065V16.825H73.7065ZM87.1371 43.3375C85.1371 43.3375 83.3371 42.9 81.7371 42.025C80.1371 41.125 78.8746 39.8625 77.9496 38.2375C77.0496 36.6125 76.5996 34.7375 76.5996 32.6125C76.5996 30.4875 77.0621 28.6125 77.9871 26.9875C78.9371 25.3625 80.2246 24.1125 81.8496 23.2375C83.4746 22.3375 85.2871 21.8875 87.2871 21.8875C89.2871 21.8875 91.0996 22.3375 92.7246 23.2375C94.3496 24.1125 95.6246 25.3625 96.5496 26.9875C97.4996 28.6125 97.9746 30.4875 97.9746 32.6125C97.9746 34.7375 97.4871 36.6125 96.5121 38.2375C95.5621 39.8625 94.2621 41.125 92.6121 42.025C90.9871 42.9 89.1621 43.3375 87.1371 43.3375ZM87.1371 38.7625C88.0871 38.7625 88.9746 38.5375 89.7996 38.0875C90.6496 37.6125 91.3246 36.9125 91.8246 35.9875C92.3246 35.0625 92.5746 33.9375 92.5746 32.6125C92.5746 30.6375 92.0496 29.125 90.9996 28.075C89.9746 27 88.7121 26.4625 87.2121 26.4625C85.7121 26.4625 84.4496 27 83.4246 28.075C82.4246 29.125 81.9246 30.6375 81.9246 32.6125C81.9246 34.5875 82.4121 36.1125 83.3871 37.1875C84.3871 38.2375 85.6371 38.7625 87.1371 38.7625ZM113.713 21.925C116.188 21.925 118.188 22.7125 119.713 24.2875C121.238 25.8375 122.001 28.0125 122.001 30.8125V43H116.751V31.525C116.751 29.875 116.338 28.6125 115.513 27.7375C114.688 26.8375 113.563 26.3875 112.138 26.3875C110.688 26.3875 109.538 26.8375 108.688 27.7375C107.863 28.6125 107.451 29.875 107.451 31.525V43H102.201V22.225H107.451V24.8125C108.151 23.9125 109.038 23.2125 110.113 22.7125C111.213 22.1875 112.413 21.925 113.713 21.925ZM139.668 43L132.618 34.15V43H127.368V15.25H132.618V31.0375L139.593 22.225H146.418L137.268 32.65L146.493 43H139.668ZM168.955 32.1625C168.955 32.9125 168.905 33.5875 168.805 34.1875H153.618C153.743 35.6875 154.268 36.8625 155.193 37.7125C156.118 38.5625 157.255 38.9875 158.605 38.9875C160.555 38.9875 161.943 38.15 162.768 36.475H168.43C167.83 38.475 166.68 40.125 164.98 41.425C163.28 42.7 161.193 43.3375 158.718 43.3375C156.718 43.3375 154.918 42.9 153.318 42.025C151.743 41.125 150.505 39.8625 149.605 38.2375C148.73 36.6125 148.293 34.7375 148.293 32.6125C148.293 30.4625 148.73 28.575 149.605 26.95C150.48 25.325 151.705 24.075 153.28 23.2C154.855 22.325 156.668 21.8875 158.718 21.8875C160.693 21.8875 162.455 22.3125 164.005 23.1625C165.58 24.0125 166.793 25.225 167.643 26.8C168.518 28.35 168.955 30.1375 168.955 32.1625ZM163.518 30.6625C163.493 29.3125 163.005 28.2375 162.055 27.4375C161.105 26.6125 159.943 26.2 158.568 26.2C157.268 26.2 156.168 26.6 155.268 27.4C154.393 28.175 153.855 29.2625 153.655 30.6625H163.518ZM192.475 32.1625C192.475 32.9125 192.425 33.5875 192.325 34.1875H177.137C177.262 35.6875 177.787 36.8625 178.712 37.7125C179.637 38.5625 180.775 38.9875 182.125 38.9875C184.075 38.9875 185.462 38.15 186.287 36.475H191.95C191.35 38.475 190.2 40.125 188.5 41.425C186.8 42.7 184.712 43.3375 182.237 43.3375C180.237 43.3375 178.437 42.9 176.837 42.025C175.262 41.125 174.025 39.8625 173.125 38.2375C172.25 36.6125 171.812 34.7375 171.812 32.6125C171.812 30.4625 172.25 28.575 173.125 26.95C174 25.325 175.225 24.075 176.8 23.2C178.375 22.325 180.187 21.8875 182.237 21.8875C184.212 21.8875 185.975 22.3125 187.525 23.1625C189.1 24.0125 190.312 25.225 191.162 26.8C192.037 28.35 192.475 30.1375 192.475 32.1625ZM187.037 30.6625C187.012 29.3125 186.525 28.2375 185.575 27.4375C184.625 26.6125 183.462 26.2 182.087 26.2C180.787 26.2 179.687 26.6 178.787 27.4C177.912 28.175 177.375 29.2625 177.175 30.6625H187.037ZM201.932 25.225C202.607 24.275 203.532 23.4875 204.707 22.8625C205.907 22.2125 207.269 21.8875 208.794 21.8875C210.569 21.8875 212.169 22.325 213.594 23.2C215.044 24.075 216.182 25.325 217.007 26.95C217.857 28.55 218.282 30.4125 218.282 32.5375C218.282 34.6625 217.857 36.55 217.007 38.2C216.182 39.825 215.044 41.0875 213.594 41.9875C212.169 42.8875 210.569 43.3375 208.794 43.3375C207.269 43.3375 205.919 43.025 204.744 42.4C203.594 41.775 202.657 40.9875 201.932 40.0375V52.9H196.682V22.225H201.932V25.225ZM212.919 32.5375C212.919 31.2875 212.657 30.2125 212.132 29.3125C211.632 28.3875 210.957 27.6875 210.107 27.2125C209.282 26.7375 208.382 26.5 207.407 26.5C206.457 26.5 205.557 26.75 204.707 27.25C203.882 27.725 203.207 28.425 202.682 29.35C202.182 30.275 201.932 31.3625 201.932 32.6125C201.932 33.8625 202.182 34.95 202.682 35.875C203.207 36.8 203.882 37.5125 204.707 38.0125C205.557 38.4875 206.457 38.725 207.407 38.725C208.382 38.725 209.282 38.475 210.107 37.975C210.957 37.475 211.632 36.7625 212.132 35.8375C212.657 34.9125 212.919 33.8125 212.919 32.5375ZM241.784 32.1625C241.784 32.9125 241.734 33.5875 241.634 34.1875H226.447C226.572 35.6875 227.097 36.8625 228.022 37.7125C228.947 38.5625 230.084 38.9875 231.434 38.9875C233.384 38.9875 234.772 38.15 235.597 36.475H241.259C240.659 38.475 239.509 40.125 237.809 41.425C236.109 42.7 234.022 43.3375 231.547 43.3375C229.547 43.3375 227.747 42.9 226.147 42.025C224.572 41.125 223.334 39.8625 222.434 38.2375C221.559 36.6125 221.122 34.7375 221.122 32.6125C221.122 30.4625 221.559 28.575 222.434 26.95C223.309 25.325 224.534 24.075 226.109 23.2C227.684 22.325 229.497 21.8875 231.547 21.8875C233.522 21.8875 235.284 22.3125 236.834 23.1625C238.409 24.0125 239.622 25.225 240.472 26.8C241.347 28.35 241.784 30.1375 241.784 32.1625ZM236.347 30.6625C236.322 29.3125 235.834 28.2375 234.884 27.4375C233.934 26.6125 232.772 26.2 231.397 26.2C230.097 26.2 228.997 26.6 228.097 27.4C227.222 28.175 226.684 29.2625 226.484 30.6625H236.347ZM251.241 25.45C251.916 24.35 252.791 23.4875 253.866 22.8625C254.966 22.2375 256.216 21.925 257.616 21.925V27.4375H256.229C254.579 27.4375 253.329 27.825 252.479 28.6C251.654 29.375 251.241 30.725 251.241 32.65V43H245.991V22.225H251.241V25.45Z" fill="#424147"/>
<a href="https://accounts.binance.com/register?ref=585785333">
<rect fill="black" fill-opacity="0" x="0.37085" y="1.875" width="205.247" height="56.25"/>
</a>
</svg>
