<svg width="191" height="60" viewBox="0 0 191 60" fill="none" xmlns="http://www.w3.org/2000/svg">
<path fill-rule="evenodd" clip-rule="evenodd" d="M15.1918 30.2842L0.340942 11.8303H12.1039L21.2712 23.2361L31.065 11.8817H37.5434L24.4035 27.1333L39.9838 46.5178H28.256L18.3296 34.1832L7.73228 46.4836H1.21877L15.1918 30.2842ZM29.9654 43.0986L7.55358 15.2495H10.3931L32.7768 43.0986H29.9654Z" fill="#424147"/>
<path d="M76.7785 16.825V21.0625H69.8035V43H64.5535V21.0625H57.5785V16.825H76.7785ZM109.784 22.225L103.709 43H98.0465L94.259 28.4875L90.4715 43H84.7715L78.659 22.225H83.984L87.659 38.05L91.634 22.225H97.184L101.084 38.0125L104.759 22.225H109.784ZM115.662 19.75C114.737 19.75 113.962 19.4625 113.337 18.8875C112.737 18.2875 112.437 17.55 112.437 16.675C112.437 15.8 112.737 15.075 113.337 14.5C113.962 13.9 114.737 13.6 115.662 13.6C116.587 13.6 117.35 13.9 117.95 14.5C118.575 15.075 118.887 15.8 118.887 16.675C118.887 17.55 118.575 18.2875 117.95 18.8875C117.35 19.4625 116.587 19.75 115.662 19.75ZM118.25 22.225V43H113V22.225H118.25ZM129.924 26.5375V36.5875C129.924 37.2875 130.087 37.8 130.412 38.125C130.762 38.425 131.337 38.575 132.137 38.575H134.574V43H131.274C126.849 43 124.637 40.85 124.637 36.55V26.5375H122.162V22.225H124.637V17.0875H129.924V22.225H134.574V26.5375H129.924ZM144.838 26.5375V36.5875C144.838 37.2875 145 37.8 145.325 38.125C145.675 38.425 146.25 38.575 147.05 38.575H149.488V43H146.188C141.763 43 139.55 40.85 139.55 36.55V26.5375H137.075V22.225H139.55V17.0875H144.838V22.225H149.488V26.5375H144.838ZM172.951 32.1625C172.951 32.9125 172.901 33.5875 172.801 34.1875H157.614C157.739 35.6875 158.264 36.8625 159.189 37.7125C160.114 38.5625 161.251 38.9875 162.601 38.9875C164.551 38.9875 165.939 38.15 166.764 36.475H172.426C171.826 38.475 170.676 40.125 168.976 41.425C167.276 42.7 165.189 43.3375 162.714 43.3375C160.714 43.3375 158.914 42.9 157.314 42.025C155.739 41.125 154.501 39.8625 153.601 38.2375C152.726 36.6125 152.289 34.7375 152.289 32.6125C152.289 30.4625 152.726 28.575 153.601 26.95C154.476 25.325 155.701 24.075 157.276 23.2C158.851 22.325 160.664 21.8875 162.714 21.8875C164.689 21.8875 166.451 22.3125 168.001 23.1625C169.576 24.0125 170.789 25.225 171.639 26.8C172.514 28.35 172.951 30.1375 172.951 32.1625ZM167.514 30.6625C167.489 29.3125 167.001 28.2375 166.051 27.4375C165.101 26.6125 163.939 26.2 162.564 26.2C161.264 26.2 160.164 26.6 159.264 27.4C158.389 28.175 157.851 29.2625 157.651 30.6625H167.514ZM182.408 25.45C183.083 24.35 183.958 23.4875 185.033 22.8625C186.133 22.2375 187.383 21.925 188.783 21.925V27.4375H187.396C185.746 27.4375 184.496 27.825 183.646 28.6C182.821 29.375 182.408 30.725 182.408 32.65V43H177.158V22.225H182.408V25.45Z" fill="#424147"/>
</svg>
